<?xml version="1.0" encoding="utf-8"?>
<!-- Generator: Adobe Illustrator 28.0.0, SVG Export Plug-In . SVG Version: 6.00 Build 0)  -->
<svg version="1.1" id="Layer_1" xmlns="http://www.w3.org/2000/svg" xmlns:xlink="http://www.w3.org/1999/xlink" x="0px" y="0px"
	 viewBox="0 0 612 612" style="enable-background:new 0 0 612 612;" xml:space="preserve">
<style type="text/css">
	.st0{fill:#FFFFFF;}
	.st1{fill:#FFFFFF;stroke:#000D73;stroke-width:25;stroke-miterlimit:10;}
</style>
<rect x="0" y="0" class="st0" width="612" height="612"/>
<path class="st1" d="M115,413.37V223.33c0-21.88,17.74-39.63,39.63-39.63h302.75c21.88,0,39.63,17.74,39.63,39.63v190.05
	c0,21.88-17.74,39.63-39.63,39.63H154.63C132.74,453,115,435.26,115,413.37z"/>
<path class="st1" d="M378.41,309.03v-0.94c0-10.95,8.87-19.82,19.82-19.82h12.04c10.95,0,19.82,8.87,19.82,19.82v0.94
	c0,10.95-8.87,19.82-19.82,19.82h-12.04C387.29,328.85,378.41,319.97,378.41,309.03z"/>
<path class="st1" d="M378.41,391.16v-0.94c0-10.95,8.87-19.82,19.82-19.82h12.04c10.95,0,19.82,8.87,19.82,19.82v0.94
	c0,10.95-8.87,19.82-19.82,19.82h-12.04C387.29,410.98,378.41,402.11,378.41,391.16z"/>
<path class="st1" d="M148.11,190.87v-16.12c0-8.7,7.05-15.75,15.75-15.75h0c8.7,0,15.75,7.05,15.75,15.75v16.12
	c0,8.7-7.05,15.75-15.75,15.75h0C155.16,206.61,148.11,199.56,148.11,190.87z"/>
<path class="st1" d="M219.18,190.87v-16.12c0-8.7,7.05-15.75,15.75-15.75h0c8.7,0,15.75,7.05,15.75,15.75v16.12
	c0,8.7-7.05,15.75-15.75,15.75h0C226.23,206.61,219.18,199.56,219.18,190.87z"/>
<path class="st1" d="M290.25,190.87v-16.12c0-8.7,7.05-15.75,15.75-15.75h0c8.7,0,15.75,7.05,15.75,15.75v16.12
	c0,8.7-7.05,15.75-15.75,15.75h0C297.3,206.61,290.25,199.56,290.25,190.87z"/>
<path class="st1" d="M430.95,191.76v-16.12c0-8.7,7.05-15.75,15.75-15.75h0c8.7,0,15.75,7.05,15.75,15.75v16.12
	c0,8.7-7.05,15.75-15.75,15.75h0C438,207.51,430.95,200.46,430.95,191.76z"/>
<path class="st1" d="M361.6,191.66v-16.12c0-8.7,7.05-15.75,15.75-15.75h0c8.7,0,15.75,7.05,15.75,15.75v16.12
	c0,8.7-7.05,15.75-15.75,15.75h0C368.65,207.41,361.6,200.36,361.6,191.66z"/>
<line class="st1" x1="118.54" y1="246.71" x2="493.46" y2="246.71"/>
</svg>
