<?xml version="1.0" encoding="UTF-8"?>
<svg id="Layer_1" data-name="Layer 1" xmlns="http://www.w3.org/2000/svg" viewBox="0 0 612 612">
  <defs>
    <style>
      .cls-1 {
        stroke-width: 18px;
      }

      .cls-1, .cls-2 {
        stroke: #101040;
        stroke-linecap: round;
        stroke-linejoin: round;
      }

      .cls-1, .cls-2, .cls-3 {
        fill: #fff;
      }

      .cls-2 {
        stroke-width: 8px;
      }

      .cls-3 {
        stroke-width: 0px;
      }
    </style>
  </defs>
  <rect class="cls-3" width="612" height="612"/>
  <path class="cls-1" d="M163.6,238.75c-4.03-26.52,13.42-46.25,34.73-46.25"/>
  <path class="cls-1" d="M190.61,192.49c0-21.05,17.28-38.11,38.59-38.11"/>
  <path class="cls-1" d="M167.21,306c-19.61-7.81-24.7-13.2-24.7-34.25"/>
  <path class="cls-1" d="M259.87,310.57c-6.19,2.64-17.83,7.26-34.62-5.7"/>
  <path class="cls-1" d="M253.34,261c-17.37-11.87-16.89-46.3,8.02-55.24"/>
  <path class="cls-1" d="M226.37,305.64c-17.15-12.49-20.8-36.35-8.15-53.29"/>
  <path class="cls-1" d="M207.85,345.17c18.62,10.25,25.3,33.45,14.92,51.84"/>
  <path class="cls-1" d="M226.16,354.38c18.73-10.05,42.16-3.21,52.34,15.28"/>
  <path class="cls-1" d="M142.76,272.52c0-34.64,29.14-45.16,48.62-30.48"/>
  <path class="cls-1" d="M190.61,349.48c-36.39,21.58-57.11-7.95-57.11-29"/>
  <path class="cls-1" d="M133.5,320.48c0-21.05,11.11-24.72,19.3-29.67"/>
  <path class="cls-1" d="M172.09,423.77c-21.31,0-38.59-17.06-38.59-38.11"/>
  <path class="cls-1" d="M133.5,388.71c.65-20.12,8.7-24,19.3-35.23"/>
  <path class="cls-1" d="M210.68,461.87c-21.31,0-38.59-17.06-38.59-38.11"/>
  <path class="cls-1" d="M249.27,423.77c0,21.05-17.28,38.11-38.59,38.11"/>
  <path class="cls-1" d="M267.8,479c-21.31,0-26.46-3.41-37.82-22.23"/>
  <path class="cls-1" d="M306.39,440.89c0,21.05-17.28,38.11-38.59,38.11"/>
  <path class="cls-1" d="M275.1,404.71c16.14,2.72,31.28,15.14,31.28,36.18"/>
  <path class="cls-1" d="M267.8,133c21.31,0,38.59,17.06,38.59,38.11"/>
  <path class="cls-1" d="M229.2,171.11c0-21.05,17.28-38.11,38.59-38.11"/>
  <path class="cls-1" d="M172.09,423.77c0-20.43,14.66-27.17,22.38-28.2"/>
  <line class="cls-1" x1="306.39" y1="165.05" x2="306.39" y2="440.89"/>
  <path class="cls-1" d="M448.53,238.75c4.01-26.52-13.36-46.25-34.58-46.25"/>
  <path class="cls-1" d="M421.64,192.49c0-21.05-17.2-38.11-38.42-38.11"/>
  <path class="cls-1" d="M444.94,306c19.53-7.81,24.59-13.2,24.59-34.25"/>
  <path class="cls-1" d="M469.28,272.52c0-34.64-29.01-45.16-48.41-30.48"/>
  <path class="cls-1" d="M421.64,349.48c36.22,21.58,56.86-7.95,56.86-29"/>
  <path class="cls-1" d="M478.5,320.48c0-21.05-11.06-24.72-19.21-29.67"/>
  <path class="cls-1" d="M440.08,423.77c21.22,0,38.42-17.06,38.42-38.11"/>
  <path class="cls-1" d="M478.5,388.71c-.64-20.12-8.67-24-19.21-35.23"/>
  <path class="cls-1" d="M401.66,461.87c21.22,0,38.42-17.06,38.42-38.11"/>
  <path class="cls-1" d="M363.25,423.77c0,21.05,17.2,38.11,38.42,38.11"/>
  <path class="cls-1" d="M344.8,479c21.22,0,26.34-3.41,37.65-22.23"/>
  <path class="cls-1" d="M306.39,440.89c0,21.05,17.2,38.11,38.42,38.11"/>
  <path class="cls-1" d="M337.53,404.71c-16.07,2.72-31.14,15.14-31.14,36.18"/>
  <path class="cls-1" d="M344.8,133c-21.22,0-38.42,17.06-38.42,38.11"/>
  <path class="cls-1" d="M383.22,171.11c0-21.05-17.2-38.11-38.42-38.11"/>
  <path class="cls-1" d="M440.08,423.77c0-20.43-14.59-27.17-22.28-28.2"/>
  <line class="cls-1" x1="306.39" y1="165.05" x2="306.39" y2="440.89"/>
  <path class="cls-2" d="M374.75,242.55c6.35,0,11.5,5.15,11.5,11.5"/>
  <path class="cls-2" d="M363.25,254.05c0-6.35,5.15-11.5,11.5-11.5"/>
  <path class="cls-2" d="M399.75,242.55c6.35,0,11.5,5.15,11.5,11.5"/>
  <path class="cls-2" d="M405.5,244.1c5.63,2.94,7.81,9.89,4.87,15.52"/>
  <path class="cls-2" d="M388.25,254.05c0-6.35,5.15-11.5,11.5-11.5"/>
  <path class="cls-2" d="M420.87,253.28c6.35,0,11.5,5.15,11.5,11.5"/>
  <path class="cls-2" d="M428.08,255.77c4.94,3.99,5.71,11.23,1.72,16.17"/>
  <path class="cls-2" d="M410.53,259.74c2.76-5.72,9.64-8.12,15.36-5.36"/>
  <path class="cls-2" d="M446.96,283.25c0,6.35-5.15,11.5-11.5,11.5"/>
  <path class="cls-2" d="M435.46,271.75c6.35,0,11.5,5.15,11.5,11.5"/>
  <path class="cls-2" d="M429.54,273.81c5.32-3.46,12.45-1.96,15.91,3.37"/>
  <path class="cls-2" d="M340.25,263.86c0-6.35,5.15-11.5,11.5-11.5"/>
  <path class="cls-2" d="M343.77,271.99c-4.49-4.49-4.49-11.77,0-16.26"/>
  <path class="cls-2" d="M343.61,255.74c4.49-4.49,11.77-4.49,16.26,0"/>
  <path class="cls-2" d="M338.54,293.05c-6.35,0-11.5-5.15-11.5-11.5"/>
  <path class="cls-2" d="M327.04,281.55c0-6.35,5.15-11.5,11.5-11.5"/>
  <path class="cls-2" d="M327.78,277.5c2.57-5.81,9.36-8.43,15.17-5.86"/>
  <path class="cls-2" d="M350.04,311.88c-6.35,0-11.5-5.15-11.5-11.5"/>
  <path class="cls-2" d="M342.23,308.49c-4.8-4.16-5.31-11.43-1.15-16.22"/>
  <path class="cls-2" d="M360.49,303.9c-1.96,6.04-8.45,9.35-14.49,7.38"/>
  <path class="cls-2" d="M374.75,319.33c-6.35,0-11.5-5.15-11.5-11.5"/>
  <path class="cls-2" d="M371.59,318.95c-6.11-1.73-9.67-8.08-7.94-14.19"/>
  <path class="cls-2" d="M386.25,307.88c0,6.35-5.15,11.5-11.5,11.5"/>
  <path class="cls-2" d="M399.75,319.38c-6.35,0-11.5-5.15-11.5-11.5"/>
  <path class="cls-2" d="M411.25,307.88c0,6.35-5.15,11.5-11.5,11.5"/>
  <path class="cls-2" d="M426.03,313.57c-6.07,1.85-12.5-1.57-14.36-7.64"/>
  <path class="cls-2" d="M435.46,302.31c0,6.35-5.15,11.5-11.5,11.5"/>
  <path class="cls-2" d="M432.76,293.74c4.49,4.49,4.49,11.77,0,16.26"/>
  <line class="cls-2" x1="350.04" y1="330.55" x2="337.53" y2="369.66"/>
  <line class="cls-2" x1="368.35" y1="366.1" x2="355.84" y2="405.22"/>
  <line class="cls-2" x1="400.25" y1="333.92" x2="387.74" y2="373.03"/>
  <line class="cls-2" x1="414.84" y1="366.1" x2="402.33" y2="405.22"/>
  <line class="cls-2" x1="374.71" y1="329.13" x2="368.46" y2="348.69"/>
</svg>