<?xml version="1.0" encoding="utf-8"?>
<!-- Generator: Adobe Illustrator 28.0.0, SVG Export Plug-In . SVG Version: 6.00 Build 0)  -->
<svg version="1.1" id="Layer_1" xmlns="http://www.w3.org/2000/svg" xmlns:xlink="http://www.w3.org/1999/xlink" x="0px" y="0px"
	 viewBox="0 0 612 612" style="enable-background:new 0 0 612 612;" xml:space="preserve">
<style type="text/css">
	.st0{fill:#FFFFFF;stroke:#000000;stroke-miterlimit:10;}
	.st1{fill:none;stroke:#020070;stroke-width:25;stroke-miterlimit:10;}
	.st2{fill:#FFFFFF;stroke:#020070;stroke-width:25;stroke-miterlimit:10;}
</style>
<rect class="st0" width="612" height="612"/>
<path class="st1" d="M289.41,335.83c-47.23-9.51-85.93-53.44-85.13-103.09"/>
<path class="st1" d="M414.4,232.74c0,38.67-22.12,74.95-56.46,92.88c-10.32,5.39-21.54,9.01-33.06,10.72"/>
<path class="st1" d="M309.33,128c58.02,0,105.06,46.89,105.06,104.74"/>
<path class="st1" d="M204.27,232.74c0-57.85,47.04-104.74,105.06-104.74"/>
<path class="st1" d="M309.33,193.9c-47.19,0-85.45-10.29-85.45-22.99"/>
<path class="st1" d="M394.78,170.91c0,12.7-38.26,22.99-85.45,22.99"/>
<ellipse class="st2" cx="351.65" cy="187.47" rx="28.48" ry="28.39"/>
<path class="st2" d="M300.22,315.98c80.43,0,145.63,75.23,145.63,168.02"/>
<path class="st2" d="M168,484c0-92.8,65.2-168.02,145.63-168.02"/>
<path class="st2" d="M476,464.04"/>
<path class="st2" d="M242.98,334.66c-7.7,23.4-2.17,52.02,13.37,69.17"/>
<path class="st2" d="M379.15,341.14c3.88,9.59,4.96,20.73,3.02,31.11s-6.87,19.95-13.8,26.73"/>
<path class="st2" d="M341.45,404.55c3.79-5.64,8.79-10.83,15.25-12.96c6.46-2.13,14.54-0.39,18.17,5.35
	c2.9,4.58,2.44,10.65,0.19,15.58c-2.25,4.92-6.05,8.95-9.79,12.88"/>
<path class="st2" d="M280.25,402.08c-3.57-5.37-8.29-10.31-14.38-12.34c-6.09-2.03-13.7-0.37-17.13,5.09
	c-2.73,4.36-2.3,10.14-0.18,14.83c2.12,4.69,5.71,8.52,9.22,12.26"/>
</svg>
