<?xml version="1.0" encoding="UTF-8"?>
<svg id="Layer_1" data-name="Layer 1" xmlns="http://www.w3.org/2000/svg" viewBox="0 0 612 612">
  <defs>
    <style>
      .cls-1, .cls-2 {
        stroke: #161670;
        stroke-miterlimit: 10;
        stroke-width: 25px;
      }

      .cls-1, .cls-3 {
        fill: #fff;
      }

      .cls-2 {
        fill: none;
      }

      .cls-3 {
        stroke-width: 0px;
      }
    </style>
  </defs>
  <rect class="cls-3" width="612" height="612"/>
  <path class="cls-2" d="m289.41,335.83c-47.23-9.51-85.93-53.44-85.13-103.09"/>
  <path class="cls-2" d="m414.4,232.74c0,38.67-22.12,74.95-56.46,92.88-10.32,5.39-21.54,9.01-33.06,10.72"/>
  <path class="cls-2" d="m309.33,128c58.02,0,105.06,46.89,105.06,104.74"/>
  <path class="cls-2" d="m204.27,232.74c0-57.85,47.04-104.74,105.06-104.74"/>
  <path class="cls-2" d="m309.33,193.9c-47.19,0-85.45-10.29-85.45-22.99"/>
  <path class="cls-2" d="m394.78,170.91c0,12.7-38.26,22.99-85.45,22.99"/>
  <ellipse class="cls-1" cx="351.65" cy="187.47" rx="28.48" ry="28.39"/>
  <path class="cls-1" d="m300.22,315.98c80.43,0,145.63,75.23,145.63,168.02"/>
  <path class="cls-1" d="m168,484c0-92.8,65.2-168.02,145.63-168.02"/>
  <path class="cls-1" d="m242.98,334.66c-7.7,23.4-2.17,52.02,13.37,69.17"/>
  <path class="cls-1" d="m379.15,341.14c3.88,9.59,4.96,20.73,3.02,31.11-1.94,10.38-6.87,19.95-13.8,26.73"/>
  <path class="cls-1" d="m341.45,404.55c3.79-5.64,8.79-10.83,15.25-12.96,6.46-2.13,14.54-.39,18.17,5.35,2.9,4.58,2.44,10.65.19,15.58s-6.05,8.95-9.79,12.88"/>
  <path class="cls-1" d="m280.25,402.08c-3.57-5.37-8.29-10.31-14.38-12.34-6.09-2.03-13.7-.37-17.13,5.09-2.73,4.36-2.3,10.14-.18,14.83,2.12,4.69,5.71,8.52,9.22,12.27"/>
</svg>