<?xml version="1.0" encoding="UTF-8"?>
<svg id="Layer_1" data-name="Layer 1" xmlns="http://www.w3.org/2000/svg" viewBox="0 0 612 612">
  <defs>
    <style>
      .cls-1 {
        stroke-width: 19px;
      }

      .cls-1, .cls-2, .cls-3 {
        stroke: #101040;
        stroke-linecap: round;
        stroke-linejoin: round;
      }

      .cls-1, .cls-2, .cls-3, .cls-4 {
        fill: #fff;
      }

      .cls-2 {
        stroke-width: 10px;
      }

      .cls-3 {
        stroke-width: 18px;
      }

      .cls-4 {
        stroke-width: 0px;
      }
    </style>
  </defs>
  <rect class="cls-4" width="612" height="612"/>
  <path class="cls-3" d="M163.21,238.75c-4.03-26.52,13.42-46.25,34.73-46.25"/>
  <path class="cls-3" d="M190.23,192.49c0-21.05,17.28-38.11,38.59-38.11"/>
  <path class="cls-3" d="M166.83,306c-19.61-7.81-24.7-13.2-24.7-34.25"/>
  <path class="cls-3" d="M259.48,310.57c-6.19,2.64-17.83,7.26-34.62-5.7"/>
  <path class="cls-3" d="M252.96,261c-17.37-11.87-16.89-46.3,8.02-55.24"/>
  <path class="cls-3" d="M225.98,305.64c-17.15-12.49-20.8-36.35-8.15-53.29"/>
  <path class="cls-3" d="M207.46,345.17c18.62,10.25,25.3,33.45,14.92,51.84"/>
  <path class="cls-3" d="M225.78,354.38c18.73-10.05,42.16-3.21,52.34,15.28"/>
  <path class="cls-3" d="M142.38,272.52c0-34.64,29.14-45.16,48.62-30.48"/>
  <path class="cls-3" d="M190.23,349.48c-36.39,21.58-57.11-7.95-57.11-29"/>
  <path class="cls-3" d="M133.11,320.48c0-21.05,11.11-24.72,19.3-29.67"/>
  <path class="cls-3" d="M171.7,423.77c-21.31,0-38.59-17.06-38.59-38.11"/>
  <path class="cls-3" d="M133.11,388.71c.65-20.12,8.7-24,19.3-35.23"/>
  <path class="cls-3" d="M210.3,461.87c-21.31,0-38.59-17.06-38.59-38.11"/>
  <path class="cls-3" d="M248.89,423.77c0,21.05-17.28,38.11-38.59,38.11"/>
  <path class="cls-3" d="M267.41,479c-21.31,0-26.46-3.41-37.82-22.23"/>
  <path class="cls-3" d="M306,440.89c0,21.05-17.28,38.11-38.59,38.11"/>
  <path class="cls-3" d="M274.72,404.71c16.14,2.72,31.28,15.14,31.28,36.18"/>
  <path class="cls-3" d="M267.41,133c21.31,0,38.59,17.06,38.59,38.11"/>
  <path class="cls-3" d="M228.82,171.11c0-21.05,17.28-38.11,38.59-38.11"/>
  <path class="cls-3" d="M171.7,423.77c0-20.43,14.66-27.17,22.38-28.2"/>
  <line class="cls-3" x1="306" y1="165.05" x2="306" y2="440.89"/>
  <path class="cls-3" d="M448.15,238.75c4.01-26.52-13.36-46.25-34.58-46.25"/>
  <path class="cls-3" d="M421.25,192.49c0-21.05-17.2-38.11-38.42-38.11"/>
  <path class="cls-3" d="M444.55,306c19.53-7.81,24.59-13.2,24.59-34.25"/>
  <path class="cls-3" d="M468.89,272.52c0-34.64-29.01-45.16-48.41-30.48"/>
  <path class="cls-3" d="M421.25,349.48c36.22,21.58,56.86-7.95,56.86-29"/>
  <path class="cls-3" d="M478.11,320.48c0-21.05-11.06-24.72-19.21-29.67"/>
  <path class="cls-3" d="M439.7,423.77c21.22,0,38.42-17.06,38.42-38.11"/>
  <path class="cls-3" d="M478.11,388.71c-.64-20.12-8.67-24-19.21-35.23"/>
  <path class="cls-3" d="M401.28,461.87c21.22,0,38.42-17.06,38.42-38.11"/>
  <path class="cls-3" d="M362.86,423.77c0,21.05,17.2,38.11,38.42,38.11"/>
  <path class="cls-3" d="M344.42,479c21.22,0,26.34-3.41,37.65-22.23"/>
  <path class="cls-3" d="M306,440.89c0,21.05,17.2,38.11,38.42,38.11"/>
  <path class="cls-3" d="M337.14,404.71c-16.07,2.72-31.14,15.14-31.14,36.18"/>
  <path class="cls-3" d="M344.42,133c-21.22,0-38.42,17.06-38.42,38.11"/>
  <path class="cls-3" d="M382.84,171.11c0-21.05-17.2-38.11-38.42-38.11"/>
  <path class="cls-3" d="M439.7,423.77c0-20.43-14.59-27.17-22.28-28.2"/>
  <line class="cls-3" x1="306" y1="165.05" x2="306" y2="440.89"/>
  <circle class="cls-3" cx="382.49" cy="204.06" r="11.56"/>
  <circle class="cls-1" cx="344.42" cy="279" r="11.56"/>
  <circle class="cls-3" cx="417.41" cy="304.88" r="11.56"/>
  <circle class="cls-3" cx="344.42" cy="359.7" r="11.56"/>
  <circle class="cls-3" cx="388.42" cy="404.71" r="11.56"/>
  <line class="cls-2" x1="344.59" y1="272.52" x2="382.67" y2="209.14"/>
  <line class="cls-2" x1="384.74" y1="216.56" x2="417.41" y2="293.31"/>
  <line class="cls-2" x1="344.99" y1="282.1" x2="388.42" y2="393.15"/>
  <line class="cls-2" x1="348.25" y1="354.47" x2="409.68" y2="311.2"/>
  <line class="cls-2" x1="391.41" y1="395.44" x2="412.68" y2="313.49"/>
  <line class="cls-2" x1="355.55" y1="282.1" x2="405.85" y2="304.88"/>
</svg>