<?xml version="1.0" encoding="UTF-8"?>
<svg id="Layer_1" data-name="Layer 1" xmlns="http://www.w3.org/2000/svg" viewBox="0 0 613 613">
  <defs>
    <style>
      .cls-1 {
        stroke-width: 18px;
      }

      .cls-1, .cls-2 {
        fill: #fff;
        stroke: #0f0f3a;
        stroke-linecap: round;
        stroke-miterlimit: 10;
      }
    </style>
  </defs>
  <rect class="cls-2" x=".5" y=".5" width="612" height="612"/>
  <path class="cls-1" d="m429.57,173.75c56.74,63.36,53.72,158.63-6.76,212.79"/>
  <path class="cls-1" d="m375.67,131.83c41.47,22.63,94.56,54.59,94.56,144.86"/>
  <path class="cls-1" d="m175.76,246.54c9.81-69.12,68.24-110.37,135.29-122.58"/>
  <line class="cls-1" x1="178.17" y1="241.75" x2="142.78" y2="312.14"/>
  <path class="cls-1" d="m166.16,338.03c-10.85,2.07-21.32-5.06-23.39-15.91"/>
  <path class="cls-1" d="m154.46,335.38c-10.04-4.6-14.45-16.47-9.85-26.51"/>
  <line class="cls-1" x1="154.46" y1="335.38" x2="178.17" y2="338.1"/>
  <line class="cls-1" x1="178.17" y1="338.1" x2="172.5" y2="430.91"/>
  <path class="cls-1" d="m198.62,446.75c-14.42,0-26.12-7.36-26.12-16.43"/>
  <line class="cls-1" x1="268.73" y1="430.33" x2="267.73" y2="492.58"/>
  <line class="cls-1" x1="422.81" y1="386.54" x2="422.81" y2="492.58"/>
  <path class="cls-1" d="m195.27,446.75c29.09,2.42,43.53-10.53,73.84-14.63"/>
  <path class="cls-1" d="m309.87,123.59c-13.22,34.46-59.26,151.53-59.26,151.53"/>
  <path class="cls-1" d="m304.52,280.14s-36.03-1.09-56.31,0"/>
  <line class="cls-1" x1="267.73" y1="381.77" x2="304.52" y2="280.14"/>
  <line class="cls-1" x1="268.73" y1="379.08" x2="375.67" y2="253.41"/>
  <path class="cls-1" d="m374.37,131.83c-15.33,32.12-60.24,119.07-60.24,119.07"/>
  <line class="cls-1" x1="375.67" y1="253.41" x2="314.13" y2="250.9"/>
</svg>