<?xml version="1.0" encoding="UTF-8"?>
<svg id="Layer_1" data-name="Layer 1" xmlns="http://www.w3.org/2000/svg" viewBox="0 0 613 613">
  <defs>
    <style>
      .cls-1 {
        stroke: #0f0f3a;
      }

      .cls-1, .cls-2 {
        fill: #fff;
      }

      .cls-1, .cls-2, .cls-3 {
        stroke-miterlimit: 10;
      }

      .cls-2, .cls-3 {
        stroke: #161670;
        stroke-width: 25px;
      }

      .cls-3 {
        fill: none;
      }
    </style>
  </defs>
  <rect class="cls-1" x=".5" y=".5" width="612" height="612"/>
  <rect class="cls-3" x="171.16" y="95.5" width="260.59" height="315.95" rx="74.21" ry="74.21"/>
  <line class="cls-2" x1="169.1" y1="181.24" x2="216.76" y2="181.24"/>
  <line class="cls-2" x1="169" y1="235.96" x2="236.53" y2="235.96"/>
  <line class="cls-2" x1="169.1" y1="290.67" x2="216.76" y2="290.67"/>
  <line class="cls-2" x1="169.1" y1="290.67" x2="216.76" y2="290.67"/>
  <line class="cls-2" x1="169.1" y1="345.39" x2="216.76" y2="345.39"/>
  <path class="cls-3" d="m171.53,200.86c65.59,33.27,65.35,29.98,130.03-1,64.68-30.98,90.35-18.23,129.81,1.49"/>
  <path class="cls-3" d="m301.45,415.4c.72,20.96,1.43,41.91,2.15,62.87.24,6.96.54,14.18,3.58,20.41,3.94,8.05,12.03,13.33,20.51,15.82,8.48,2.49,17.44,2.55,26.26,2.59,30.02.14,60.03.27,90.05.41"/>
</svg>