<?xml version="1.0" encoding="UTF-8"?>
<svg id="Layer_1" data-name="Layer 1" xmlns="http://www.w3.org/2000/svg" viewBox="0 0 425.69 59.47">
  <defs>
    <style>
      .cls-1 {
        fill: #fff;
        font-family: Times-Roman, Times;
        stroke: #000;
        stroke-miterlimit: 10;
        stroke-width: .25px;
      }

      .cls-2 {
        font-size: 36px;
      }

      .cls-3 {
        font-size: 18px;
      }

      .cls-4 {
        fill: #f6e0aa;
      }

      .cls-4, .cls-5, .cls-6, .cls-7, .cls-8, .cls-9, .cls-10, .cls-11, .cls-12, .cls-13, .cls-14, .cls-15, .cls-16, .cls-17, .cls-18, .cls-19, .cls-20, .cls-21, .cls-22, .cls-23, .cls-24, .cls-25, .cls-26, .cls-27, .cls-28, .cls-29, .cls-30 {
        stroke-width: 0px;
      }

      .cls-5 {
        fill: #5e5c9f;
      }

      .cls-6 {
        fill: #78b85f;
      }

      .cls-7 {
        fill: #484995;
      }

      .cls-8 {
        fill: #4a4b95;
      }

      .cls-9 {
        fill: #55539b;
      }

      .cls-10 {
        fill: #85bd60;
      }

      .cls-11 {
        fill: #535299;
      }

      .cls-12 {
        fill: #3e408f;
      }

      .cls-13 {
        fill: #abca5d;
      }

      .cls-14 {
        fill: #d6d85e;
      }

      .cls-15 {
        fill: #cdd65f;
      }

      .cls-16 {
        fill: #b5cd5d;
      }

      .cls-17 {
        fill: #9cc55d;
      }

      .cls-18 {
        fill: #8fc05f;
      }

      .cls-19 {
        fill: #c1d25f;
      }

      .cls-20 {
        fill: #f2c55b;
      }

      .cls-21 {
        fill: #f5d380;
      }

      .cls-22 {
        fill: #f1bf4f;
      }

      .cls-23 {
        fill: #fcfcfc;
      }

      .cls-24 {
        fill: #f3c254;
      }

      .cls-25 {
        fill: #f6db9a;
      }

      .cls-26 {
        fill: #f6d58c;
      }

      .cls-27 {
        fill: #f5e3b6;
      }

      .cls-28 {
        fill: #f3c863;
      }

      .cls-29 {
        fill: #f5cf77;
      }

      .cls-30 {
        fill: #f5cc6e;
      }
    </style>
  </defs>
  <path class="cls-12" d="m156.6,52.07l-.13-.11-.16.04c-1.73-.45-3.68-.31-4.96-1.92l.02.02c-4.57-1.54-7.62-4.96-10.56-8.51-.38-.46-.28-1.06-.5-1.57h0c-.42-.17-.26-.66-.52-.93h0c-1.2-1.41-1.72-3.09-1.87-4.91.07-.14.05-.27-.07-.38-.65-2.35-1.82-4.66-.37-7.12h-.03c.41-.61-.05-1.39.4-1.99.12-.11.14-.24.07-.38.26-.48-.05-1.13.46-1.53h0c.31-1.18.27-2.53,1.43-3.36h0c1.85-5.03,5.69-8.23,10.18-10.7,6.16-3.39,12.82-4.42,19.77-3.61.95.11,1.9.24,2.65.94l-.03-.03c.44.34,1.08,0,1.5.44v.21c-.1.69-.65.91-1.18,1.14-1.54.42-3.08.84-4.54,1.49-6.18,2.69-11.12,6.86-13.48,13.21-3.47,9.29-.83,18.15,7.71,24.78,1.19.93,2.49,1.73,3.85,2.4,1.13.67,2.33,1.18,3.59,1.57.54.41,1.79.42.94,1.63-4.77.6-9.56,1.43-14.16-.83Z"/>
  <path class="cls-6" d="m172.87,7.36c.33-.22.66-.45.99-.67.14-.05.29-.08.44-.1,1.77-.18,3.08.81,4.38,1.78h0c1.32.29,2.59.68,3.33,1.96h0c.83.22,1.55.61,1.93,1.44h-.01c1.49,1.07,2.94,2.19,3.84,3.86l-.02-.03c.22.14.4.3.48.56h-.04c.65.25.7.92,1.01,1.41l-.02-.02c1.86,1.26,1.83,3.41,2.46,5.24h0c.31.44.55.92.62,1.47-.05,1.14.39,2.66-1.03,3.06-1.75.49-3.15-.48-4.12-1.99-.21-.3-.38-.62-.53-.95-.35-1.03-.51-2.11-.92-3.12-.14-.37-.29-.75-.46-1.11-.17-.36-.34-.71-.53-1.06-.11-.18-.2-.36-.3-.54-.38-.76-.72-1.54-1.23-2.22-.67-.8-1.2-1.71-1.94-2.47-1.06-1.25-2.39-2.18-3.68-3.16-.76-.58-1.55-1.11-2.41-1.54-.79-.54-1.89-.7-2.23-1.79Z"/>
  <path class="cls-23" d="m191.63,22.79c-.82-1.75-1.64-3.5-2.46-5.24"/>
  <path class="cls-22" d="m166,50.13c2.33-1.38,4.8-2.49,6.84-4.35,3.09-2.81,5.04-6.34,6.74-10.06,1.63-2.41,4.31-1.35,6.5-1.9.75-.19.8.96.89,1.65,0,1.41-.47,2.7-1.08,3.94-.9,1.27-1.63,2.67-2.5,3.97-.43.61-.98,1.11-1.49,1.64-.29.29-.58.59-.87.89-.14.16-.29.3-.44.45-.68.68-1.46,1.24-2.25,1.78-.74.49-1.45,1.02-2.2,1.51-2.11,1.03-4.08,2.52-6.66,1.97-1.31-.17-2.44-.74-3.49-1.49Z"/>
  <path class="cls-5" d="m144.11,20.86c-1.08,2.33-1.7,4.85-1.8,7.34-.12,2.73.31,5.51,1.36,8.12.18.44.3.89.45,1.34-.29,1.11,1.35,2.49-.49,3.37h0c-.14-.18-.32-.32-.48-.49h0c-.16-.16-.3-.33-.47-.48-1.38-2.24-2.73-4.49-3.11-7.17-.74-5.19-.39-10.15,3.1-14.44,1.99-.11,1.75,1.13,1.44,2.4Z"/>
  <path class="cls-9" d="m144.11,20.86c-.33-.89-.12-2.11-1.44-2.4.82-1.97,2.11-3.56,3.85-4.8.15-.17.34-.3.48-.48h0c1.28.16,1.41.89.96,1.92h0c-.17.15-.31.33-.48.48-.16.32-.33.64-.49.95-.18.14-.3.34-.48.48-.8,1.28-1.6,2.56-2.4,3.84Z"/>
  <path class="cls-11" d="m143.63,41.03c.56-.39.53-.91.25-1.42-.4-.73-.07-1.33.24-1.95,1.55,1.84,2.65,4.01,4.31,5.77.09,1.05-.03,1.89-1.44,1.44-1.31-1.11-2.83-2.04-3.36-3.83Z"/>
  <path class="cls-27" d="m171.95,11.27c-1.27-.81-2.55-1.62-3.82-2.42,1.47-.84,3.03-1.4,4.74-1.49.75.6,1.8.7,2.46,1.47.55.92-.13,1.27-.78,1.52-.85.33-1.65.85-2.59.92Z"/>
  <path class="cls-8" d="m147.96,15.1c-.08-.76-.33-1.43-.96-1.91,1.86-1.62,3.73-3.22,6.46-3.3-1.64,1.96-3.63,3.53-5.5,5.22Z"/>
  <path class="cls-7" d="m147,44.86c.94-.02,1.09-.83,1.44-1.44,1.61,1.53,3.68,2.61,4.79,4.68-2.65-.08-4.35-1.83-6.23-3.24Z"/>
  <path class="cls-14" d="m169.49,51.62c2.45-.29,4.48-1.73,6.79-2.43.69,1.14-.24,1.52-.93,2.02-.02.11-.04.23-.06.34-.52.02-1.04.06-1.44.47-.67.05-1.35.01-1.9.51-.36-.02-.73-.04-1.09-.06-.45-.28-.91-.56-1.36-.84Z"/>
  <path class="cls-11" d="m143.16,40.54c.16.16.32.32.48.48-.16-.16-.32-.32-.48-.48Z"/>
  <path class="cls-11" d="m142.68,40.06c.16.16.31.32.47.48-.16-.16-.31-.32-.47-.48Z"/>
  <path class="cls-8" d="m146.52,17.02c.16-.16.32-.32.48-.48-.16.16-.32.32-.48.48Z"/>
  <path class="cls-8" d="m147.48,15.58c.16-.16.32-.32.48-.48-.16.16-.32.32-.48.48Z"/>
  <path class="cls-8" d="m147,13.18c-.16.16-.32.32-.48.48.16-.16.32-.32.48-.48Z"/>
  <path class="cls-10" d="m191.68,24.11c.91,2.72,1.06,5.48.39,8.28-1.81,1.48-3.37,1.03-4.82-1.4-.17-1.32-.08-2.67-.42-3.98-.1-.83-.21-1.66.5-2.32.55,1.38,1.93,1.68,3.05,2.28.53.29,1.12,0,1.2-.73.07-.71.07-1.43.1-2.14Z"/>
  <path class="cls-25" d="m176.76,16.53c-.64-.8-1.27-1.61-1.91-2.41-.75-1.07-.16-1.82.64-2.44.69-.53,1.41-1.04,2.23-1.38,1.52.85,2.84,1.92,3.83,3.38-.92,2.08-3.3,1.72-4.79,2.86Z"/>
  <path class="cls-26" d="m176.76,16.53c.85-.86,1.57-1.89,2.98-1.94.71-.02,1.35-.33,1.81-.92.91.6,1.43,1.51,1.91,2.44.51,1.42-.65,1.72-1.48,1.81-1.49.16-2.46.95-3.33,2.03-.84-1.03-1.27-2.27-1.89-3.42Z"/>
  <path class="cls-30" d="m180.53,27.23c-.57-.91-.36-1.94-.45-2.93-.09-.13-.21-.36-.15-.42,1.75-1.49,3.46-3.09,6-3.04.65,1.03.97,2.16,1.01,3.37-1.99.46-3.35,2.71-5.79,2.02-.34-.1-.12.83-.63.99Z"/>
  <path class="cls-28" d="m180.53,27.23c.17-.72-.34-1.95,1.37-1.36.46.16,1.59,0,2.17-1.03.54-.95,1.86-.56,2.87-.62.13.16.26.33.39.49,0,.8.01,1.6.02,2.4-2.2.96-4.48,1.69-6.77,2.4l-.06-2.27Z"/>
  <path class="cls-21" d="m178.65,19.95c.4-2.05.58-2.25,2.43-2.45,1.01-.11,2.08-.07,2.38-1.39.81.75,1.27,1.69,1.54,2.74-.6,1.05-1.7,1.43-2.73,1.74-1.12.34-1.93,1.01-2.69,1.81-.53-.73-.71-1.61-.93-2.46Z"/>
  <path class="cls-29" d="m179.58,22.41c-.03-1.2.17-1.99,1.73-2.14,1.26-.12,2.46-.91,3.69-1.41,0,0-.04.03-.04.03.21.31.14.78.55.99.33.24.4.59.42.97-1.92,1-3.84,1.99-5.75,3-.09.05-.07.3-.1.45-.54-.53-.45-1.23-.5-1.89Z"/>
  <path class="cls-4" d="m177.72,10.29c-.04.84-.5,1.25-1.29,1.48-1.14.33-1.68,1.14-1.58,2.34-1.15-.77-2.07-1.76-2.9-2.85.48-.95,1.36-1.28,2.31-1.43.64-.1,1.02-.35,1.07-1.01.99.18,1.7.81,2.39,1.47Z"/>
  <path class="cls-21" d="m185.51,19.88c-.5-.15-.58-.54-.55-.99.42.2.48.6.55.99Z"/>
  <path class="cls-18" d="m187.76,30.89c1.26,1.73,2.4,2.13,4.31,1.5.19,1.68-.8,3.11-1,4.71-.12.02-.24.05-.36.09-1.73,1.15-2.63.98-4.07-.78-.03-.23-.01-.45.04-.68.19-.54.17-1.1.15-1.67-.1-.68-.13-1.37-.06-2.06.04-.36.14-.7.35-1,.19-.17.4-.22.64-.12Z"/>
  <path class="cls-13" d="m182.95,43.36c.66-1.38,1.28-2.77,2.41-3.85.46.27-.12,1.46,1.13,1.14.62-.16,1.39.23,1.85.87-.21.45-.42.9-.62,1.35-.74.68-1.47,1.36-2.21,2.03-1.49.54-2.47.24-2.56-1.54Z"/>
  <path class="cls-16" d="m182.95,43.36c.52,1.06,1.36,1.6,2.56,1.54-.36.46-.73.91-1.09,1.37-.15,0-.3.02-.46.03-.15.15-.32.29-.49.42l-.04.03c-.19.35-.72.19-.87.59l.04-.05c-.24.09-.4.27-.55.46h.01c-1.29-.04-1.94-.57-1.47-1.94h0c.42-.24.73-.56.95-.98.32-.63.81-1.11,1.4-1.48Z"/>
  <path class="cls-17" d="m188.34,41.52c-.73.05-1.38-.4-2.06-.41-1.36-.02-.9-.91-.92-1.6.22-1.27,1.04-2.36,1.03-3.69.11-.23.26-.26.44-.08.76,1.55,1.77,1.93,3.88,1.45-.17,1.4-1.24,2.41-1.6,3.72-.26.2-.51.41-.77.61Z"/>
  <path class="cls-15" d="m175.34,51.21c.55-.56.71-1.3.93-2.02.37-.85,1.21-1.06,1.92-1.45.8.2,1.31.69,1.52,1.49-.04.13-.08.27-.11.4-.39.02-.73.14-.94.49-1.18.14-2.1,1.07-3.32,1.09Z"/>
  <path class="cls-19" d="m179.72,49.23c-.68-.32-1.19-.81-1.52-1.49.8-.64,1.6-1.28,2.39-1.91.05.98.69,1.51,1.47,1.94-.02.14-.05.27-.07.41-.76.35-1.51.7-2.27,1.06Z"/>
  <path class="cls-19" d="m182.55,47.35c.12-.44.47-.55.87-.59"/>
  <path class="cls-19" d="m182.05,47.77c.1-.25.28-.41.55-.46-.08.28-.27.42-.55.46Z"/>
  <path class="cls-19" d="m183.46,46.73c.17-.14.33-.28.49-.42-.07.25-.23.4-.49.42Z"/>
  <path class="cls-20" d="m187.76,30.89c-.14.05-.28.09-.42.12-.54-.07-1.13-.57-1.55.25-.14.28-.44.48-.74.58-1.7.55-3.61.59-4.97,1.99-.08-1.47.32-2.88.5-4.32,1.92-1.74,4.21-2.45,6.77-2.4.73,1.2.22,2.53.41,3.79Z"/>
  <path class="cls-24" d="m180.09,33.82c1.12-.44,1.01-1.49.99-2.47,2.01.76,3.69.47,4.67-.71.34-.41,1.12-.23,1.61.37-.02.3-.03.6-.05.89-.46.78-.12,1.63-.23,2.44-.04.47.13.97-.24,1.39,0,0,0,0,0,0-.15.02-.3.05-.44.08-.03-.47-.05-.94-.08-1.43-2.19.88-4.73-.29-6.73,1.33,0-.68.13-1.33.51-1.9Z"/>
  <path class="cls-19" d="m181.55,44.84c0,.63-.31.96-.95.97.17-.46.5-.78.95-.97Z"/>
  <path class="cls-20" d="m186.84,34.31c.11-.81-.31-1.72.46-2.41,0,.77-.02,1.54-.03,2.31-.09.28-.23.31-.43.1Z"/>
  <path class="cls-17" d="m186.84,34.31c.15-.03.29-.06.43-.1.04.56.16,1.14-.44,1.52,0-.47,0-.95,0-1.42Z"/>
  <text class="cls-1" transform="translate(198.58 30.03)"><tspan class="cls-2"><tspan x="0" y="0">JKC Neurology</tspan></tspan><tspan class="cls-3"><tspan x="0" y="21.6">Epiliepsy and Memory Clinic</tspan></tspan></text>
</svg>