<?xml version="1.0" encoding="utf-8"?>
<!-- Generator: Adobe Illustrator 28.0.0, SVG Export Plug-In . SVG Version: 6.00 Build 0)  -->
<svg version="1.1" id="Layer_1" xmlns="http://www.w3.org/2000/svg" xmlns:xlink="http://www.w3.org/1999/xlink" x="0px" y="0px"
	 viewBox="0 0 410.65 58.37" style="enable-background:new 0 0 410.65 58.37;" xml:space="preserve">
<style type="text/css">
	.st0{fill:#3E408F;}
	.st1{fill:#78B85F;}
	.st2{fill:#FCFCFC;}
	.st3{fill:#F1BF4F;}
	.st4{fill:#5E5C9F;}
	.st5{fill:#55539B;}
	.st6{fill:#535299;}
	.st7{fill:#F5E3B6;}
	.st8{fill:#4A4B95;}
	.st9{fill:#484995;}
	.st10{fill:#D6D85E;}
	.st11{fill:#85BD60;}
	.st12{fill:#F6DB9A;}
	.st13{fill:#F6D58C;}
	.st14{fill:#F5CC6E;}
	.st15{fill:#F3C863;}
	.st16{fill:#F5D380;}
	.st17{fill:#F5CF77;}
	.st18{fill:#F6E0AA;}
	.st19{fill:#8FC05F;}
	.st20{fill:#ABCA5D;}
	.st21{fill:#B5CD5D;}
	.st22{fill:#9CC55D;}
	.st23{fill:#CDD65F;}
	.st24{fill:#C1D25F;}
	.st25{fill:#F2C55B;}
	.st26{fill:#F3C254;}
	.st27{fill:#FFFFFF;stroke:#000000;stroke-width:0.25;stroke-miterlimit:10;}
	.st28{font-family:'Constantia';}
	.st29{font-size:32.8023px;}
	.st30{font-size:21px;}
</style>
<path class="st0" d="M19.8,52.4l-0.13-0.11l-0.16,0.04c-1.73-0.45-3.68-0.31-4.96-1.92l0.02,0.02c-4.57-1.54-7.62-4.96-10.56-8.51
	c-0.38-0.46-0.28-1.06-0.5-1.57l0.01,0.01c-0.42-0.18-0.26-0.68-0.52-0.94l0,0c-1.2-1.42-1.72-3.09-1.87-4.91
	c0.07-0.14,0.05-0.27-0.07-0.38c-0.65-2.35-1.82-4.66-0.37-7.12l-0.03-0.01c0.41-0.61-0.05-1.39,0.4-1.99
	c0.12-0.11,0.14-0.24,0.07-0.38c0.26-0.48-0.05-1.13,0.46-1.53l0,0.01c0.31-1.2,0.27-2.54,1.43-3.38l0,0.01
	c1.85-5.04,5.69-8.23,10.18-10.71c6.16-3.39,12.82-4.42,19.77-3.61c0.95,0.11,1.9,0.24,2.65,0.94l-0.03-0.03
	c0.44,0.34,1.08,0.01,1.5,0.44l0,0.21c-0.1,0.69-0.64,0.91-1.18,1.14c-1.54,0.42-3.08,0.84-4.54,1.49
	c-6.18,2.69-11.12,6.86-13.48,13.21c-3.47,9.29-0.83,18.15,7.71,24.78c1.19,0.93,2.49,1.73,3.85,2.4c1.13,0.67,2.33,1.18,3.59,1.57
	c0.54,0.41,1.79,0.42,0.94,1.63C29.19,53.84,24.41,54.66,19.8,52.4z"/>
<path class="st1" d="M36.08,7.69c0.33-0.22,0.66-0.45,0.99-0.67c0.14-0.05,0.29-0.08,0.44-0.1c1.77-0.18,3.08,0.81,4.38,1.78l0.01,0
	c1.32,0.29,2.59,0.68,3.33,1.96l-0.01,0c0.83,0.23,1.55,0.61,1.93,1.45l-0.01-0.01c1.49,1.08,2.94,2.2,3.84,3.87l-0.02-0.03
	c0.22,0.14,0.4,0.3,0.48,0.56l-0.04,0.01c0.65,0.24,0.7,0.91,1.01,1.4l-0.02-0.02c1.86,1.26,1.83,3.41,2.46,5.24l0-0.01
	c0.31,0.45,0.55,0.93,0.62,1.48c-0.05,1.14,0.39,2.66-1.03,3.06c-1.75,0.49-3.15-0.48-4.12-1.99c-0.21-0.3-0.38-0.62-0.53-0.95
	c-0.35-1.03-0.51-2.11-0.92-3.12c-0.14-0.37-0.29-0.75-0.46-1.11c-0.17-0.36-0.34-0.71-0.53-1.06c-0.11-0.18-0.2-0.36-0.3-0.54
	c-0.38-0.76-0.72-1.54-1.23-2.22c-0.67-0.8-1.2-1.71-1.94-2.47c-1.06-1.25-2.39-2.18-3.68-3.16c-0.76-0.58-1.55-1.11-2.41-1.54
	C37.52,8.94,36.42,8.79,36.08,7.69z"/>
<path class="st2" d="M54.83,23.12c-0.82-1.75-1.64-3.5-2.46-5.24"/>
<path class="st3" d="M29.2,50.46c2.33-1.38,4.8-2.49,6.84-4.35c3.09-2.81,5.04-6.34,6.74-10.06c1.63-2.41,4.31-1.35,6.5-1.9
	c0.75-0.19,0.8,0.96,0.89,1.65c-0.01,1.41-0.47,2.7-1.08,3.94c-0.9,1.27-1.63,2.67-2.5,3.97c-0.43,0.61-0.98,1.11-1.49,1.64
	c-0.29,0.29-0.58,0.59-0.87,0.89c-0.14,0.16-0.29,0.3-0.44,0.45c-0.68,0.68-1.46,1.24-2.25,1.78c-0.74,0.49-1.45,1.02-2.2,1.51
	c-2.11,1.03-4.08,2.52-6.66,1.97C31.39,51.78,30.26,51.21,29.2,50.46z"/>
<path class="st4" d="M7.32,21.19c-1.08,2.33-1.7,4.85-1.8,7.34c-0.12,2.73,0.31,5.51,1.36,8.12c0.18,0.44,0.3,0.89,0.45,1.34
	c-0.29,1.11,1.35,2.49-0.49,3.37l0,0c-0.14-0.18-0.32-0.32-0.48-0.48l0,0c-0.16-0.16-0.3-0.33-0.47-0.48
	c-1.38-2.24-2.73-4.49-3.11-7.17c-0.74-5.19-0.39-10.15,3.1-14.44C7.87,18.68,7.63,19.91,7.32,21.19z"/>
<path class="st5" d="M7.32,21.19c-0.33-0.89-0.12-2.11-1.44-2.4c0.82-1.97,2.11-3.56,3.85-4.8c0.15-0.17,0.34-0.3,0.48-0.48l0,0
	c1.28,0.16,1.41,0.89,0.96,1.91h0c-0.17,0.15-0.31,0.33-0.48,0.48c-0.16,0.32-0.33,0.64-0.49,0.95c-0.18,0.14-0.3,0.34-0.48,0.48
	C8.92,18.63,8.12,19.91,7.32,21.19z"/>
<path class="st6" d="M6.84,41.36c0.56-0.39,0.53-0.91,0.25-1.42c-0.4-0.73-0.07-1.33,0.24-1.95c1.55,1.84,2.65,4.01,4.31,5.77
	c0.09,1.05-0.03,1.89-1.44,1.44C8.89,44.08,7.37,43.15,6.84,41.36z"/>
<path class="st7" d="M35.16,11.6c-1.27-0.81-2.55-1.62-3.82-2.42c1.47-0.84,3.03-1.4,4.74-1.49c0.75,0.6,1.8,0.7,2.46,1.47
	c0.55,0.92-0.13,1.27-0.78,1.52C36.9,11.01,36.1,11.52,35.16,11.6z"/>
<path class="st8" d="M11.16,15.43c-0.08-0.76-0.33-1.43-0.96-1.91c1.86-1.62,3.73-3.22,6.46-3.3
	C15.02,12.17,13.04,13.74,11.16,15.43z"/>
<path class="st9" d="M10.2,45.19c0.94-0.02,1.09-0.83,1.44-1.44c1.61,1.53,3.68,2.61,4.79,4.68C13.78,48.35,12.09,46.6,10.2,45.19z"
	/>
<path class="st10" d="M32.7,51.95c2.45-0.29,4.48-1.73,6.79-2.43c0.69,1.14-0.24,1.52-0.93,2.02c-0.02,0.11-0.04,0.23-0.06,0.34
	c-0.52,0.02-1.04,0.06-1.44,0.47c-0.67,0.05-1.35,0.01-1.9,0.51c-0.36-0.02-0.73-0.04-1.09-0.06C33.61,52.52,33.15,52.24,32.7,51.95
	z"/>
<path class="st6" d="M6.36,40.87c0.16,0.16,0.32,0.32,0.48,0.48C6.68,41.19,6.52,41.03,6.36,40.87z"/>
<path class="st6" d="M5.89,40.39c0.16,0.16,0.31,0.32,0.47,0.48C6.21,40.71,6.05,40.55,5.89,40.39z"/>
<path class="st8" d="M9.72,17.35c0.16-0.16,0.32-0.32,0.48-0.48C10.04,17.03,9.88,17.19,9.72,17.35z"/>
<path class="st8" d="M10.69,15.91c0.16-0.16,0.32-0.32,0.48-0.48C11,15.59,10.85,15.75,10.69,15.91z"/>
<path class="st8" d="M10.2,13.51c-0.16,0.16-0.32,0.32-0.48,0.48C9.88,13.83,10.04,13.67,10.2,13.51z"/>
<path class="st11" d="M54.89,24.44c0.91,2.72,1.06,5.48,0.39,8.28c-1.81,1.48-3.37,1.03-4.82-1.4c-0.17-1.32-0.08-2.67-0.42-3.98
	c-0.1-0.83-0.21-1.66,0.5-2.32c0.55,1.38,1.93,1.68,3.05,2.28c0.53,0.29,1.12-0.01,1.2-0.73C54.87,25.87,54.86,25.15,54.89,24.44z"
	/>
<path class="st12" d="M39.97,16.86c-0.64-0.8-1.27-1.61-1.91-2.41c-0.75-1.07-0.16-1.82,0.64-2.44c0.69-0.53,1.41-1.04,2.23-1.38
	c1.52,0.85,2.84,1.92,3.83,3.38C43.83,16.08,41.45,15.73,39.97,16.86z"/>
<path class="st13" d="M39.97,16.86c0.85-0.86,1.57-1.89,2.98-1.94c0.71-0.02,1.35-0.33,1.81-0.92c0.91,0.6,1.43,1.51,1.91,2.44
	c0.51,1.42-0.65,1.72-1.48,1.81c-1.49,0.16-2.46,0.95-3.33,2.03C41.02,19.26,40.59,18.01,39.97,16.86z"/>
<path class="st14" d="M43.74,27.56c-0.57-0.91-0.36-1.94-0.45-2.93c-0.09-0.13-0.21-0.36-0.15-0.42c1.75-1.49,3.46-3.09,6-3.04
	c0.65,1.03,0.97,2.16,1.01,3.37c-1.99,0.46-3.35,2.71-5.79,2.02C44.02,26.47,44.24,27.39,43.74,27.56z"/>
<path class="st15" d="M43.74,27.56c0.17-0.72-0.34-1.95,1.37-1.36c0.46,0.16,1.59-0.01,2.17-1.03c0.54-0.95,1.86-0.56,2.87-0.62
	c0.13,0.16,0.26,0.33,0.39,0.49c0.01,0.8,0.01,1.6,0.02,2.4c-2.2,0.96-4.48,1.69-6.77,2.4C43.78,29.07,43.76,28.32,43.74,27.56z"/>
<path class="st16" d="M41.86,20.28c0.4-2.05,0.58-2.25,2.43-2.45c1.01-0.11,2.08-0.07,2.38-1.39c0.81,0.75,1.27,1.69,1.54,2.74
	c-0.6,1.05-1.7,1.43-2.73,1.74c-1.12,0.34-1.93,1.01-2.69,1.81C42.25,22.01,42.08,21.13,41.86,20.28z"/>
<path class="st17" d="M42.79,22.74c-0.03-1.2,0.17-1.99,1.73-2.14c1.26-0.12,2.46-0.91,3.69-1.41c0,0-0.04,0.03-0.04,0.03
	c0.21,0.31,0.14,0.78,0.55,0.99c0.33,0.24,0.4,0.59,0.42,0.97c-1.92,1-3.84,1.99-5.75,3c-0.09,0.05-0.07,0.3-0.1,0.45
	C42.75,24.1,42.84,23.4,42.79,22.74z"/>
<path class="st18" d="M40.93,10.63c-0.04,0.84-0.5,1.25-1.29,1.48c-1.14,0.33-1.68,1.14-1.58,2.34c-1.15-0.77-2.07-1.76-2.9-2.85
	c0.48-0.95,1.36-1.28,2.31-1.43c0.64-0.1,1.02-0.35,1.07-1.01C39.52,9.34,40.23,9.97,40.93,10.63z"/>
<path class="st16" d="M48.72,20.21c-0.5-0.15-0.58-0.54-0.55-0.99C48.58,19.42,48.65,19.82,48.72,20.21z"/>
<path class="st19" d="M50.97,31.22c1.26,1.73,2.4,2.13,4.31,1.5c0.19,1.68-0.8,3.11-1,4.71c-0.12,0.02-0.24,0.05-0.36,0.09
	c-1.73,1.15-2.63,0.98-4.07-0.78c-0.03-0.23-0.01-0.45,0.04-0.68c0.19-0.54,0.17-1.1,0.15-1.67c-0.1-0.68-0.13-1.37-0.06-2.06
	c0.04-0.36,0.14-0.7,0.35-1C50.52,31.17,50.73,31.12,50.97,31.22z"/>
<path class="st20" d="M46.16,43.69c0.66-1.38,1.28-2.77,2.41-3.85c0.46,0.27-0.12,1.46,1.13,1.14c0.62-0.16,1.39,0.23,1.85,0.87
	c-0.21,0.45-0.42,0.9-0.62,1.35c-0.74,0.68-1.47,1.36-2.21,2.03C47.23,45.78,46.24,45.48,46.16,43.69z"/>
<path class="st21" d="M46.16,43.69c0.52,1.06,1.36,1.6,2.56,1.54c-0.36,0.46-0.73,0.91-1.09,1.37c-0.15,0.01-0.3,0.02-0.46,0.03
	c-0.15,0.15-0.32,0.29-0.49,0.42l-0.04,0.03c-0.19,0.35-0.72,0.19-0.87,0.59l0.04-0.05c-0.24,0.09-0.4,0.27-0.55,0.46l0.01,0
	c-1.29-0.04-1.94-0.56-1.47-1.94l0.01-0.01c0.42-0.23,0.73-0.56,0.95-0.97C45.08,44.54,45.56,44.06,46.16,43.69z"/>
<path class="st22" d="M51.55,41.85c-0.73,0.05-1.38-0.4-2.06-0.41c-1.36-0.02-0.9-0.91-0.92-1.6c0.22-1.27,1.04-2.36,1.03-3.69
	c0.11-0.23,0.26-0.26,0.44-0.08c0.76,1.55,1.77,1.93,3.88,1.45c-0.17,1.4-1.24,2.41-1.6,3.72C52.06,41.44,51.8,41.65,51.55,41.85z"
	/>
<path class="st23" d="M38.55,51.54c0.55-0.56,0.71-1.3,0.93-2.02c0.37-0.85,1.21-1.06,1.92-1.45c0.8,0.2,1.31,0.69,1.52,1.49
	c-0.04,0.13-0.08,0.27-0.11,0.4c-0.39,0.02-0.73,0.14-0.94,0.49C40.69,50.59,39.77,51.52,38.55,51.54z"/>
<path class="st24" d="M42.92,49.56c-0.68-0.32-1.19-0.81-1.52-1.49c0.8-0.64,1.6-1.28,2.39-1.91c0.05,0.98,0.69,1.51,1.47,1.94
	c-0.02,0.14-0.05,0.27-0.07,0.41C44.44,48.85,43.68,49.21,42.92,49.56z"/>
<path class="st24" d="M45.76,47.68c0.12-0.44,0.47-0.55,0.87-0.59"/>
<path class="st24" d="M45.25,48.1c0.1-0.25,0.28-0.41,0.55-0.46C45.72,47.91,45.53,48.05,45.25,48.1z"/>
<path class="st24" d="M46.67,47.06c0.17-0.14,0.33-0.28,0.49-0.42C47.09,46.89,46.94,47.04,46.67,47.06z"/>
<path class="st25" d="M50.97,31.22c-0.14,0.05-0.28,0.09-0.42,0.12c-0.54-0.07-1.13-0.57-1.55,0.25c-0.14,0.28-0.44,0.48-0.74,0.58
	c-1.7,0.55-3.61,0.59-4.97,1.99c-0.08-1.47,0.32-2.88,0.5-4.32c1.92-1.74,4.21-2.45,6.77-2.4C51.29,28.63,50.78,29.96,50.97,31.22z"
	/>
<path class="st26" d="M43.3,34.15c1.12-0.44,1.01-1.49,0.99-2.47c2.01,0.76,3.69,0.47,4.67-0.71c0.34-0.41,1.12-0.23,1.61,0.37
	c-0.02,0.3-0.03,0.6-0.05,0.89c-0.46,0.78-0.12,1.63-0.23,2.44c-0.04,0.47,0.13,0.97-0.24,1.39c0,0,0,0,0,0
	c-0.15,0.02-0.3,0.05-0.44,0.08c-0.03-0.47-0.05-0.94-0.08-1.43c-2.19,0.88-4.73-0.29-6.73,1.33C42.78,35.38,42.91,34.73,43.3,34.15
	z"/>
<path class="st24" d="M44.75,45.17c0,0.63-0.31,0.96-0.95,0.97C43.98,45.68,44.3,45.37,44.75,45.17z"/>
<path class="st25" d="M50.05,34.64c0.11-0.81-0.31-1.72,0.46-2.41c-0.01,0.77-0.02,1.54-0.03,2.31
	C50.39,34.82,50.25,34.85,50.05,34.64z"/>
<path class="st22" d="M50.05,34.64c0.15-0.03,0.29-0.06,0.43-0.1c0.04,0.56,0.16,1.14-0.44,1.52
	C50.04,35.59,50.04,35.12,50.05,34.64z"/>
<text transform="matrix(1.0168 0 0 1 64.6369 27.786)"><tspan x="0" y="0" class="st27 st28 st29">Psychiatry &amp; Neurology </tspan><tspan x="0" y="25.2" class="st27 st28 st30">Medical Group of Los Angeles</tspan></text>
</svg>
