<?xml version="1.0" encoding="UTF-8"?>
<svg id="Layer_1" data-name="Layer 1" xmlns="http://www.w3.org/2000/svg" viewBox="0 0 613 613">
  <defs>
    <style>
      .cls-1, .cls-2 {
        stroke-width: 23px;
      }

      .cls-1, .cls-2, .cls-3, .cls-4, .cls-5 {
        stroke: #0f0f3a;
        stroke-miterlimit: 10;
      }

      .cls-1, .cls-2, .cls-4, .cls-5 {
        fill: none;
      }

      .cls-1, .cls-4, .cls-5 {
        stroke-linecap: round;
      }

      .cls-3 {
        fill: #fff;
      }

      .cls-4 {
        stroke-width: 18px;
      }

      .cls-5 {
        stroke-width: 40px;
      }

      .cls-6 {
        fill: #0f0f3a;
        stroke-width: 0px;
      }
    </style>
  </defs>
  <rect class="cls-3" x=".5" y=".5" width="612" height="612"/>
  <ellipse class="cls-2" cx="308.68" cy="166.08" rx="28.06" ry="28.58"/>
  <line class="cls-1" x1="241.5" y1="325.97" x2="336.65" y2="217.81"/>
  <line class="cls-5" x1="364.18" y1="362.4" x2="340.77" y2="228.53"/>
  <line class="cls-1" x1="365.43" y1="351.68" x2="308.06" y2="399.14"/>
  <line class="cls-1" x1="375.87" y1="362.4" x2="375.87" y2="475.5"/>
  <line class="cls-1" x1="289.08" y1="475.5" x2="308.06" y2="399.14"/>
  <path class="cls-6" d="M283.57,62.13c.29,0,.58-.5.87-.5-.29,0-.58.5-.87.5h0Z"/>
  <path class="cls-4" d="M259.03,135c14.48-22.3,26.86-23.5,33.98-26"/>
  <path class="cls-4" d="M367.26,190.09c18.24,19.34,16.48,31.65,17.23,39.16"/>
  <path class="cls-4" d="M228.59,362.4c-22.3-14.48-23.5-26.86-26-33.98"/>
  <path class="cls-4" d="M209.94,379.39c-22.3-14.48-23.5-26.86-26-33.98"/>
  <path class="cls-4" d="M396.26,175.09c18.24,19.34,16.48,31.65,17.23,39.16"/>
</svg>