<?xml version="1.0" encoding="utf-8"?>
<!-- Generator: Adobe Illustrator 28.0.0, SVG Export Plug-In . SVG Version: 6.00 Build 0)  -->
<svg version="1.1" id="Layer_1" xmlns="http://www.w3.org/2000/svg" xmlns:xlink="http://www.w3.org/1999/xlink" x="0px" y="0px"
	 viewBox="0 0 612 612" style="enable-background:new 0 0 612 612;" xml:space="preserve">
<style type="text/css">
	.st0{fill:#FFFFFF;stroke:#000D73;stroke-miterlimit:10;}
	.st1{fill:#FFFFFF;stroke:#000D73;stroke-width:25;stroke-miterlimit:10;}
	.st2{fill:#000D73;stroke:#000D73;stroke-miterlimit:10;}
	.st3{fill:none;stroke:#000D73;stroke-width:19;stroke-miterlimit:10;}
</style>
<rect x="0" class="st0" width="612" height="612"/>
<ellipse class="st1" cx="297.48" cy="278.2" rx="140.5" ry="137.2"/>
<ellipse class="st1" cx="297.48" cy="282.47" rx="78.48" ry="79.47"/>
<ellipse class="st1" cx="297.48" cy="282.47" rx="78.48" ry="79.47"/>
<path class="st2" d="M287.43,181.41c-0.6-5.75-1.21-11.5-1.82-17.24c-8.35,0.93-16.45,2.73-24.19,5.33
	c2.27,5.63,4.53,11.27,6.78,16.91c6.13-1.98,12.53-3.36,19.11-4.11C287.35,182,287.39,181.71,287.43,181.41z"/>
<path class="st2" d="M374.16,216.74c1.84-0.86,3.69-1.72,5.54-2.58c3.07-2.64,6.12-5.31,9.2-7.94
	c-19.3-23.38-47.39-39.18-79.14-42.23c-0.67,6.03-1.36,12.06-2.06,18.08C334.23,184.53,357.78,197.48,374.16,216.74z"/>
<path class="st1" d="M255.46,291.99L199.38,471h198.31L341.2,292.82C311.76,292.82,291.02,291.99,255.46,291.99z"/>
<path class="st3" d="M173.1,285.16v-11.1c0-4.42,3.58-8.01,8.01-8.01h14.47c4.42,0,8.01,3.58,8.01,8.01v11.1
	c0,4.42-3.58,8.01-8.01,8.01H181.1C176.68,293.16,173.1,289.58,173.1,285.16z"/>
</svg>
