<?xml version="1.0" encoding="UTF-8"?>
<svg id="Layer_1" data-name="Layer 1" xmlns="http://www.w3.org/2000/svg" viewBox="0 0 613 613">
  <defs>
    <style>
      .cls-1 {
        fill: none;
        stroke-linecap: round;
        stroke-linejoin: round;
        stroke-width: 25px;
      }

      .cls-1, .cls-2 {
        stroke: #0f0f3a;
      }

      .cls-2 {
        fill: #fff;
        stroke-miterlimit: 10;
      }
    </style>
  </defs>
  <rect class="cls-2" x=".5" y=".5" width="612" height="612"/>
  <path class="cls-1" d="M206.61,506.43c-22.31-52.23-8.37-134.93-16.72-196.2-14.3-5.21-33.39-16.55-30.51-31.11,3.72-18.74,4.39-16.07,17.06-29.3,11.56-12.07,19.85-30.71,25.76-46.47,6.2-16.53,10.43-22.82,22.11-43.38,2.11-3.72,6.82-5.66,11.02-5.46,5.15.25,5.53,4.59,7.03,9.63,1.5,5.04-.62,10.67-1.44,15.87-4.19,26.31-7.7,51.84-9.92,78.4-1.81,21.66-1.52,44.57,3.73,64.97,10.59,41.1,33.05,100.13,40.12,137.92"/>
  <path class="cls-1" d="M270.55,442.31c37.38-72.89,27.7-55.4,70.43-99.05-6.5-14.01-12.16-35.82-.04-44.03,15.61-10.57,14.23-8.19,32.35-8.4,16.53-.19,35.3-7.38,50.39-14.26,15.83-7.21,23.17-8.6,45.67-14.71,4.06-1.1,8.74.92,11.57,4.1,3.47,3.9.73,7.23-1.69,11.88-2.43,4.65-7.82,7.1-12.01,10.18-21.18,15.58-41.33,31.1-61.29,48.27-16.28,14.01-31.94,30.42-42.34,48.64-20.97,36.71-45.95,94.67-67.12,126.5"/>
  <line class="cls-1" x1="93.5" y1="231.3" x2="140.27" y2="231.3"/>
  <line class="cls-1" x1="177.92" y1="115.49" x2="177.72" y2="160.77"/>
  <line class="cls-1" x1="106.27" y1="162.59" x2="149.74" y2="185.74"/>
  <line class="cls-1" x1="519.5" y1="347.08" x2="474.2" y2="335.2"/>
  <line class="cls-1" x1="409.53" y1="437.8" x2="420.75" y2="394"/>
  <line class="cls-1" x1="490.39" y1="410.39" x2="453.94" y2="376.92"/>
</svg>