<?xml version="1.0" encoding="UTF-8"?>
<svg id="Layer_1" data-name="Layer 1" xmlns="http://www.w3.org/2000/svg" viewBox="0 0 613 613">
  <defs>
    <style>
      .cls-1, .cls-2 {
        fill: #fff;
      }

      .cls-1, .cls-2, .cls-3 {
        stroke: #0f0f3a;
      }

      .cls-1, .cls-3 {
        stroke-linecap: round;
        stroke-linejoin: round;
        stroke-width: 21px;
      }

      .cls-2 {
        stroke-miterlimit: 10;
      }

      .cls-3 {
        fill: none;
      }
    </style>
  </defs>
  <rect class="cls-2" x=".5" y=".5" width="612" height="612"/>
  <g>
    <g>
      <g>
        <path class="cls-3" d="M225.43,396.11c-.56-13.59,2.66-29.08,16.7-31.77,44.84-9.13,102.81,11.02,141.18,25.56"/>
        <path class="cls-3" d="M400.86,434.99c5.75-12.19,8.77-27.73-2.99-36.14-37.37-27.34-97.98-33.48-138.57-36.43"/>
      </g>
      <g>
        <path class="cls-3" d="M393.41,471.94c.56,13.59-2.66,29.08-16.7,31.77-44.84,9.13-102.81-11.02-141.18-25.56"/>
        <path class="cls-3" d="M217.98,433.06c-5.75,12.19-8.77,27.73,2.99,36.14,37.37,27.34,97.98,33.48,138.57,36.43"/>
      </g>
      <path class="cls-3" d="M225.23,398.52c-20.66-3.32-32.11-7.63-38.16-2.12-3.69,3.36-4.57,4.49-4.48,8.74.08,3.58-1.07,6.65.84,8.64,9.08,9.44,31.4,13.71,37.25,13.53"/>
      <path class="cls-3" d="M401.96,439.16c20.18,5.73,32.3,6.65,35.72,14.25,2.08,4.64,2.45,6.04.72,9.89-1.46,3.24-1.58,6.54-4.1,7.55-11.94,4.79-34.01-.78-39.28-3.43"/>
      <path class="cls-3" d="M250.45,392.56c2.91,19.05-5.33,37.08-13.38,53.96"/>
    </g>
    <g>
      <g>
        <path class="cls-1" d="M211.37,307.59c-5.14-12.49-7.37-28.17,4.83-35.92,38.81-25.26,99.82-28.06,140.62-28.78"/>
        <path class="cls-1" d="M388.51,278.46c1.24-13.54-1.21-29.18-15.05-32.66-44.2-11.61-102.92,5.27-141.86,17.65"/>
      </g>
      <g>
        <path class="cls-1" d="M394.08,315.78c5.14,12.49,7.37,28.17-4.83,35.92-38.81,25.26-99.82,28.06-140.62,28.78"/>
        <path class="cls-1" d="M216.94,344.9c-1.24,13.54,1.21,29.18,15.05,32.66,44.2,11.61,102.92-5.27,141.86-17.65"/>
      </g>
      <path class="cls-1" d="M212,309.9c-20.44,4.61-32.59,4.85-36.38,12.26-2.31,4.52-2.75,5.9-1.22,9.84,1.29,3.32,1.25,6.62,3.71,7.76,11.68,5.44,34,1.1,39.4-1.26"/>
      <path class="cls-1" d="M390.96,281.95c20.8-2.17,32.44-5.84,38.21,0,3.52,3.56,4.34,4.73,4.03,8.97-.26,3.58.74,6.7-1.27,8.58-9.54,8.93-32.05,11.96-37.88,11.45"/>
      <path class="cls-1" d="M233.55,294.93c9.18,16.72,7.6,36.64,5.79,55.42"/>
    </g>
    <g>
      <g>
        <path class="cls-1" d="M214.03,167.73c-3.23-13.17-3.12-29.03,10.07-34.71,42.07-18.65,102.76-11.51,143.17-5.6"/>
        <path class="cls-1" d="M393.33,167.73c3.22-13.17,3.12-29.03-10.04-34.71-41.95-18.65-102.46-11.51-142.75-5.6"/>
      </g>
      <g>
        <path class="cls-1" d="M393.32,205.49c3.23,13.17,3.12,29.03-10.07,34.71-42.07,18.65-102.76,11.51-143.17,5.6"/>
        <path class="cls-1" d="M214.02,205.49c-3.22,13.17-3.12,29.03,10.04,34.71,41.95,18.65,102.46,11.51,142.75,5.6"/>
      </g>
      <path class="cls-1" d="M214.31,170.12c-20.87,1.23-32.92-.5-37.75,6.2-2.95,4.09-3.59,5.38-2.66,9.52.79,3.49.26,6.74,2.52,8.27,10.74,7.27,33.43,6.61,39.11,5.16"/>
      <path class="cls-1" d="M395.23,171.57c20.87,1.23,32.92-.5,37.75,6.2,2.95,4.09,3.59,5.38,2.66,9.52-.79,3.49-.26,6.74-2.52,8.27-10.74,7.27-33.43,6.61-39.11,5.16"/>
      <path class="cls-1" d="M237.8,158.83c6.6,18.01,2.1,37.43-2.46,55.69"/>
    </g>
  </g>
</svg>