<?xml version="1.0" encoding="UTF-8"?>
<svg id="Layer_1" data-name="Layer 1" xmlns="http://www.w3.org/2000/svg" viewBox="0 0 612 612">
  <defs>
    <style>
      .cls-1 {
        stroke: #101040;
        stroke-linecap: round;
        stroke-miterlimit: 10;
        stroke-width: 18px;
      }

      .cls-1, .cls-2 {
        fill: #fff;
      }

      .cls-2 {
        stroke-width: 0px;
      }
    </style>
  </defs>
  <rect class="cls-2" width="612" height="612"/>
  <path class="cls-1" d="M163.6,239.1c-4.03-26.52,13.42-46.25,34.73-46.25"/>
  <path class="cls-1" d="M190.61,192.85c0-21.05,17.28-38.11,38.59-38.11"/>
  <path class="cls-1" d="M167.21,306.36c-19.61-7.81-24.7-13.2-24.7-34.25"/>
  <path class="cls-1" d="M142.76,272.87c0-34.64,29.14-45.16,48.62-30.48"/>
  <path class="cls-1" d="M190.61,349.84c-36.39,21.58-57.11-7.95-57.11-29"/>
  <path class="cls-1" d="M133.5,320.84c0-21.05,11.11-24.72,19.3-29.67"/>
  <path class="cls-1" d="M172.09,424.12c-21.31,0-38.59-17.06-38.59-38.11"/>
  <path class="cls-1" d="M133.5,389.07c.65-20.12,8.7-24,19.3-35.23"/>
  <path class="cls-1" d="M210.68,462.23c-21.31,0-38.59-17.06-38.59-38.11"/>
  <path class="cls-1" d="M249.27,424.12c0,21.05-17.28,38.11-38.59,38.11"/>
  <path class="cls-1" d="M267.8,479.36c-21.31,0-26.46-3.41-37.82-22.23"/>
  <path class="cls-1" d="M306.39,441.25c0,21.05-17.28,38.11-38.59,38.11"/>
  <path class="cls-1" d="M275.1,405.07c16.14,2.72,31.28,15.14,31.28,36.18"/>
  <path class="cls-1" d="M267.8,133.36c21.31,0,38.59,17.06,38.59,38.11"/>
  <path class="cls-1" d="M229.2,171.46c0-21.05,17.28-38.11,38.59-38.11"/>
  <path class="cls-1" d="M172.09,424.12c0-20.43,14.66-27.17,22.38-28.2"/>
  <line class="cls-1" x1="354.2" y1="169.41" x2="230.15" y2="308.16"/>
  <line class="cls-1" x1="275.28" y1="308.16" x2="230.15" y2="308.16"/>
  <line class="cls-1" x1="275.28" y1="308.16" x2="230.15" y2="412.92"/>
  <line class="cls-1" x1="382.62" y1="271.41" x2="230.15" y2="412.92"/>
  <line class="cls-1" x1="382.62" y1="271.41" x2="230.15" y2="412.92"/>
  <line class="cls-1" x1="382.62" y1="271.41" x2="325.77" y2="271.41"/>
  <line class="cls-1" x1="354.2" y1="169.41" x2="325.77" y2="271.41"/>
  <path class="cls-1" d="M448.53,239.1c4.01-26.52-13.36-46.25-34.58-46.25"/>
  <path class="cls-1" d="M421.64,192.85c0-21.05-17.2-38.11-38.42-38.11"/>
  <path class="cls-1" d="M444.94,306.36c19.53-7.81,24.59-13.2,24.59-34.25"/>
  <path class="cls-1" d="M469.28,272.87c0-34.64-29.01-45.16-48.41-30.48"/>
  <path class="cls-1" d="M421.64,349.84c36.22,21.58,56.86-7.95,56.86-29"/>
  <path class="cls-1" d="M478.5,320.84c0-21.05-11.06-24.72-19.21-29.67"/>
  <path class="cls-1" d="M440.08,424.12c21.22,0,38.42-17.06,38.42-38.11"/>
  <path class="cls-1" d="M478.5,389.07c-.64-20.12-8.67-24-19.21-35.23"/>
  <path class="cls-1" d="M401.66,462.23c21.22,0,38.42-17.06,38.42-38.11"/>
  <path class="cls-1" d="M363.25,424.12c0,21.05,17.2,38.11,38.42,38.11"/>
  <path class="cls-1" d="M344.8,479.36c21.22,0,26.34-3.41,37.65-22.23"/>
  <path class="cls-1" d="M306.39,441.25c0,21.05,17.2,38.11,38.42,38.11"/>
  <path class="cls-1" d="M337.53,405.07c-16.07,2.72-31.14,15.14-31.14,36.18"/>
  <path class="cls-1" d="M344.8,133.36c-21.22,0-38.42,17.06-38.42,38.11"/>
  <path class="cls-1" d="M383.22,171.46c0-21.05-17.2-38.11-38.42-38.11"/>
  <path class="cls-1" d="M440.08,424.12c0-20.43-14.59-27.17-22.28-28.2"/>
</svg>