<?xml version="1.0" encoding="UTF-8"?>
<svg id="Layer_1" data-name="Layer 1" xmlns="http://www.w3.org/2000/svg" viewBox="0 0 613 613">
  <defs>
    <style>
      .cls-1, .cls-2 {
        stroke-width: 23px;
      }

      .cls-1, .cls-2, .cls-3, .cls-4 {
        stroke: #0f0f3a;
        stroke-miterlimit: 10;
      }

      .cls-1, .cls-2, .cls-4 {
        fill: none;
      }

      .cls-1, .cls-4 {
        stroke-linecap: round;
      }

      .cls-3 {
        fill: #fff;
      }

      .cls-4 {
        stroke-width: 40px;
      }

      .cls-5 {
        fill: #0f0f3a;
        stroke-width: 0px;
      }
    </style>
  </defs>
  <rect class="cls-3" x=".5" y=".5" width="612" height="612"/>
  <ellipse class="cls-2" cx="158.94" cy="223.3" rx="26.42" ry="27.16" transform="translate(-39.39 34.12) rotate(-10.91)"/>
  <line class="cls-1" x1="256.65" y1="255.04" x2="172.67" y2="276.55"/>
  <line class="cls-1" x1="256.65" y1="255.04" x2="298.35" y2="192.91"/>
  <line class="cls-1" x1="260.41" y1="291.33" x2="186.45" y2="296.22"/>
  <line class="cls-1" x1="260.41" y1="291.33" x2="311.23" y2="255.04"/>
  <line class="cls-4" x1="263.07" y1="386.31" x2="179.09" y2="281.3"/>
  <line class="cls-1" x1="261.2" y1="376.19" x2="338.95" y2="383.02"/>
  <line class="cls-1" x1="261.89" y1="391.58" x2="300.08" y2="423.13"/>
  <line class="cls-1" x1="324.6" y1="488" x2="300.09" y2="423.16"/>
  <line class="cls-1" x1="384.45" y1="438.97" x2="343.54" y2="385.77"/>
  <path class="cls-5" d="M238.33,125.25c.29,0,.58-.5.87-.5-.29,0-.58.5-.87.5h0Z"/>
  <path class="cls-1" d="M355.42,180.15c10.63-11.36,28.93-20.07,49.57-25.31s43.53-7.17,66.12-7.01c15.17.11,31.11,1.3,43.3,6.44"/>
  <path class="cls-1" d="M349.26,220.91c4.64-5.46,13.3-10.44,23.36-14.19,10.05-3.75,21.45-6.34,32.82-8.05,7.63-1.15,15.72-1.92,22.18-.78"/>
</svg>