<?xml version="1.0" encoding="UTF-8"?>
<svg id="Layer_1" data-name="Layer 1" xmlns="http://www.w3.org/2000/svg" viewBox="0 0 612 612">
  <defs>
    <style>
      .cls-1 {
        stroke: #101040;
        stroke-linecap: round;
        stroke-linejoin: round;
        stroke-width: 18px;
      }

      .cls-1, .cls-2 {
        fill: #fff;
      }

      .cls-2 {
        stroke-width: 0px;
      }
    </style>
  </defs>
  <rect class="cls-2" width="612" height="612"/>
  <path class="cls-1" d="M163.6,238.75c-4.03-26.52,13.42-46.25,34.73-46.25"/>
  <path class="cls-1" d="M190.61,192.49c0-21.05,17.28-38.11,38.59-38.11"/>
  <path class="cls-1" d="M167.21,306c-19.61-7.81-24.7-13.2-24.7-34.25"/>
  <path class="cls-1" d="M259.87,310.57c-6.19,2.64-17.83,7.26-34.62-5.7"/>
  <path class="cls-1" d="M226.37,305.64c-17.15-12.49-20.8-36.35-8.15-53.29"/>
  <path class="cls-1" d="M207.85,345.17c18.62,10.25,25.3,33.45,14.92,51.84"/>
  <path class="cls-1" d="M226.16,354.38c18.73-10.05,42.16-3.21,52.34,15.28"/>
  <path class="cls-1" d="M142.76,272.52c0-34.64,29.14-45.16,48.62-30.48"/>
  <path class="cls-1" d="M190.61,349.48c-36.39,21.58-57.11-7.95-57.11-29"/>
  <path class="cls-1" d="M133.5,320.48c0-21.05,11.11-24.72,19.3-29.67"/>
  <path class="cls-1" d="M172.09,423.77c-21.31,0-38.59-17.06-38.59-38.11"/>
  <path class="cls-1" d="M133.5,388.71c.65-20.12,8.7-24,19.3-35.23"/>
  <path class="cls-1" d="M210.68,461.87c-21.31,0-38.59-17.06-38.59-38.11"/>
  <path class="cls-1" d="M249.27,423.77c0,21.05-17.28,38.11-38.59,38.11"/>
  <path class="cls-1" d="M267.8,479c-21.31,0-26.46-3.41-37.82-22.23"/>
  <path class="cls-1" d="M306.39,440.89c0,21.05-17.28,38.11-38.59,38.11"/>
  <path class="cls-1" d="M275.1,404.71c16.14,2.72,31.28,15.14,31.28,36.18"/>
  <path class="cls-1" d="M249.2,137.81c18.69-10.24,42.04-3.59,52.16,14.87"/>
  <path class="cls-1" d="M233.85,152.8c9.97-18.53,33.27-25.36,52.04-15.26"/>
  <path class="cls-1" d="M172.09,423.77c0-20.43,14.66-27.17,22.38-28.2"/>
  <path class="cls-1" d="M448.53,238.75c4.01-26.52-13.36-46.25-34.58-46.25"/>
  <path class="cls-1" d="M421.64,192.49c0-21.05-17.2-38.11-38.42-38.11"/>
  <path class="cls-1" d="M444.94,306c19.53-7.81,24.59-13.2,24.59-34.25"/>
  <path class="cls-1" d="M352.7,310.57c6.17,2.64,17.75,7.26,34.47-5.7"/>
  <path class="cls-1" d="M404.48,345.17c-18.53,10.25-25.18,33.45-14.85,51.84"/>
  <path class="cls-1" d="M386.25,354.38c-18.64-10.05-41.97-3.21-52.1,15.28"/>
  <path class="cls-1" d="M469.28,272.52c0-34.64-29.01-45.16-48.41-30.48"/>
  <path class="cls-1" d="M421.64,349.48c36.22,21.58,56.86-7.95,56.86-29"/>
  <path class="cls-1" d="M478.5,320.48c0-21.05-11.06-24.72-19.21-29.67"/>
  <path class="cls-1" d="M440.08,423.77c21.22,0,38.42-17.06,38.42-38.11"/>
  <path class="cls-1" d="M478.5,388.71c-.64-20.12-8.67-24-19.21-35.23"/>
  <path class="cls-1" d="M401.66,461.87c21.22,0,38.42-17.06,38.42-38.11"/>
  <path class="cls-1" d="M363.25,423.77c0,21.05,17.2,38.11,38.42,38.11"/>
  <path class="cls-1" d="M344.8,479c21.22,0,26.34-3.41,37.65-22.23"/>
  <path class="cls-1" d="M306.39,440.89c0,21.05,17.2,38.11,38.42,38.11"/>
  <path class="cls-1" d="M337.53,404.71c-16.07,2.72-31.14,15.14-31.14,36.18"/>
  <path class="cls-1" d="M357.61,140.72c-18.86-9.72-41.97-2.44-51.61,16.27"/>
  <path class="cls-1" d="M371.75,149.69c-13.44-16.19-37.58-18.33-53.9-4.78"/>
  <path class="cls-1" d="M440.08,423.77c0-20.43-14.59-27.17-22.28-28.2"/>
  <line class="cls-1" x1="306" y1="272.52" x2="306.38" y2="440.9"/>
  <line class="cls-1" x1="191.39" y1="235.59" x2="444.94" y2="306"/>
  <line class="cls-1" x1="198.33" y1="192.49" x2="469.53" y2="271.75"/>
  <line class="cls-1" x1="248.5" y1="207.16" x2="302.06" y2="153.59"/>
  <line class="cls-1" x1="302.06" y1="215.62" x2="365.63" y2="152.05"/>
  <line class="cls-1" x1="350.67" y1="232.12" x2="414.24" y2="168.56"/>
</svg>