<?xml version="1.0" encoding="UTF-8"?>
<svg id="Layer_1" data-name="Layer 1" xmlns="http://www.w3.org/2000/svg" viewBox="0 0 612 612">
  <defs>
    <style>
      .cls-1 {
        stroke-width: 18px;
      }

      .cls-1, .cls-2, .cls-3 {
        fill: #fff;
      }

      .cls-1, .cls-2, .cls-4 {
        stroke: #101040;
        stroke-linecap: round;
        stroke-linejoin: round;
      }

      .cls-2, .cls-4 {
        stroke-width: 12px;
      }

      .cls-3 {
        stroke-width: 0px;
      }

      .cls-4 {
        fill: none;
      }
    </style>
  </defs>
  <rect class="cls-3" width="612" height="612"/>
  <path class="cls-1" d="M163.6,239.87c-4.03-26.52,13.42-46.25,34.73-46.25"/>
  <path class="cls-1" d="M190.61,193.62c0-21.05,17.28-38.11,38.59-38.11"/>
  <path class="cls-1" d="M167.21,307.12c-19.61-7.81-24.7-13.2-24.7-34.25"/>
  <path class="cls-1" d="M259.87,311.7c-6.19,2.64-17.83,7.26-34.62-5.7"/>
  <path class="cls-1" d="M253.34,262.13c-17.37-11.87-16.89-46.3,8.02-55.24"/>
  <path class="cls-1" d="M226.37,306.77c-17.15-12.49-20.8-36.35-8.15-53.29"/>
  <path class="cls-1" d="M207.85,346.3c18.62,10.25,25.3,33.45,14.92,51.84"/>
  <path class="cls-1" d="M226.16,355.51c18.73-10.05,42.16-3.21,52.34,15.28"/>
  <path class="cls-1" d="M142.76,273.64c0-34.64,29.14-45.16,48.62-30.48"/>
  <path class="cls-1" d="M190.61,350.6c-36.39,21.58-57.11-7.95-57.11-29"/>
  <path class="cls-1" d="M133.5,321.6c0-21.05,11.11-24.72,19.3-29.67"/>
  <path class="cls-1" d="M172.09,424.89c-21.31,0-38.59-17.06-38.59-38.11"/>
  <path class="cls-1" d="M133.5,389.83c.65-20.12,8.7-24,19.3-35.23"/>
  <path class="cls-1" d="M210.68,463c-21.31,0-38.59-17.06-38.59-38.11"/>
  <path class="cls-1" d="M249.27,424.89c0,21.05-17.28,38.11-38.59,38.11"/>
  <path class="cls-1" d="M267.8,480.12c-21.31,0-26.46-3.41-37.82-22.23"/>
  <path class="cls-1" d="M306.39,442.02c0,21.05-17.28,38.11-38.59,38.11"/>
  <path class="cls-1" d="M275.1,405.84c16.14,2.72,31.28,15.14,31.28,36.18"/>
  <path class="cls-1" d="M267.8,134.12c21.31,0,38.59,17.06,38.59,38.11"/>
  <path class="cls-1" d="M229.2,172.23c0-21.05,17.28-38.11,38.59-38.11"/>
  <path class="cls-1" d="M172.09,424.89c0-20.43,14.66-27.17,22.38-28.2"/>
  <line class="cls-1" x1="306.39" y1="166.18" x2="306.39" y2="442.02"/>
  <path class="cls-1" d="M448.53,239.87c4.01-26.52-13.36-46.25-34.58-46.25"/>
  <path class="cls-1" d="M421.64,193.62c0-21.05-17.2-38.11-38.42-38.11"/>
  <path class="cls-1" d="M444.94,307.12c19.53-7.81,24.59-13.2,24.59-34.25"/>
  <path class="cls-1" d="M469.28,273.64c0-34.64-29.01-45.16-48.41-30.48"/>
  <path class="cls-1" d="M421.64,350.6c36.22,21.58,56.86-7.95,56.86-29"/>
  <path class="cls-1" d="M478.5,321.6c0-21.05-11.06-24.72-19.21-29.67"/>
  <path class="cls-1" d="M440.08,424.89c21.22,0,38.42-17.06,38.42-38.11"/>
  <path class="cls-1" d="M478.5,389.83c-.64-20.12-8.67-24-19.21-35.23"/>
  <path class="cls-1" d="M401.66,463c21.22,0,38.42-17.06,38.42-38.11"/>
  <path class="cls-1" d="M363.25,424.89c0,21.05,17.2,38.11,38.42,38.11"/>
  <path class="cls-1" d="M344.8,480.12c21.22,0,26.34-3.41,37.65-22.23"/>
  <path class="cls-1" d="M306.39,442.02c0,21.05,17.2,38.11,38.42,38.11"/>
  <path class="cls-1" d="M337.53,405.84c-16.07,2.72-31.14,15.14-31.14,36.18"/>
  <path class="cls-1" d="M344.8,134.12c-21.22,0-38.42,17.06-38.42,38.11"/>
  <path class="cls-1" d="M383.22,172.23c0-21.05-17.2-38.11-38.42-38.11"/>
  <path class="cls-1" d="M440.08,424.89c0-20.43-14.59-27.17-22.28-28.2"/>
  <line class="cls-1" x1="306.39" y1="166.18" x2="306.39" y2="442.02"/>
  <circle class="cls-2" cx="377.99" cy="298.25" r="9"/>
  <ellipse class="cls-4" cx="377.99" cy="298.25" rx="37" ry="38.99"/>
  <ellipse class="cls-4" cx="377.99" cy="300" rx="65.5" ry="66"/>
</svg>