<?xml version="1.0" encoding="UTF-8"?>
<svg id="Layer_1" data-name="Layer 1" xmlns="http://www.w3.org/2000/svg" viewBox="0 0 613 613">
  <defs>
    <style>
      .cls-1, .cls-2 {
        fill: #fff;
      }

      .cls-1, .cls-2, .cls-3 {
        stroke: #0f0f3a;
      }

      .cls-1, .cls-3 {
        stroke-linecap: round;
        stroke-linejoin: round;
        stroke-width: 21px;
      }

      .cls-2 {
        stroke-miterlimit: 10;
      }

      .cls-3 {
        fill: none;
      }
    </style>
  </defs>
  <rect class="cls-2" x=".5" y=".5" width="612" height="612"/>
  <g>
    <g>
      <g>
        <line class="cls-1" x1="333.18" y1="316.08" x2="279.71" y2="316.08"/>
        <line class="cls-1" x1="333.18" y1="267.44" x2="333.18" y2="316.08"/>
        <line class="cls-1" x1="333.18" y1="165.64" x2="333.18" y2="214.28"/>
        <line class="cls-1" x1="279.71" y1="165.64" x2="333.18" y2="165.64"/>
        <line class="cls-1" x1="279.71" y1="316.08" x2="279.71" y2="267.44"/>
        <line class="cls-1" x1="279.71" y1="214.28" x2="279.71" y2="165.64"/>
        <line class="cls-1" x1="382.09" y1="214.28" x2="382.09" y2="267.44"/>
        <line class="cls-1" x1="333.18" y1="214.28" x2="382.09" y2="214.28"/>
        <line class="cls-1" x1="230.79" y1="214.28" x2="279.71" y2="214.28"/>
        <line class="cls-1" x1="230.79" y1="267.44" x2="230.79" y2="214.28"/>
        <line class="cls-1" x1="382.09" y1="267.44" x2="333.18" y2="267.44"/>
        <line class="cls-1" x1="279.71" y1="267.44" x2="230.79" y2="267.44"/>
      </g>
      <ellipse class="cls-3" cx="306.44" cy="240.86" rx="131.11" ry="130.36"/>
    </g>
    <path class="cls-3" d="M239.87,516.5c-.92-31.86-2.71-63.69-5.39-95.44-.87-10.3-1.99-21.07-7.75-29.68-3.1-4.64-7.38-8.36-11.6-12.02-25.31-21.95-50.63-43.91-75.94-65.86-.84-1.01-.75-2.57-.66-4.12.02-20.25-.27-40.5-.57-60.75-.1-6.67-.28-13.67-3.58-19.48-3.3-5.81-10.83-9.83-16.89-6.97-6.35,3-7.74,11.23-8.17,18.21-2.81,44.9-.45,89.95.66,135.24,3.73,30.37,44.15,47.03,50.96,73.46,13.42,21.34,3.04,45.01,8.57,66.46"/>
    <path class="cls-3" d="M174.74,347.31c-3.6-2.69-7.74-4.9-12.22-5.36-4.48-.46-9.35,1.07-12.04,4.67-2.98,3.98-2.73,9.64-.69,14.16,2.04,4.52,5.61,8.16,9.1,11.69,8.43,8.53,16.86,17.07,25.3,25.6.19.19.38.39.57.58"/>
    <path class="cls-3" d="M375.35,516.5c.9-31.86,2.67-63.69,5.3-95.44.85-10.3,1.96-21.07,7.62-29.68,3.05-4.64,7.25-8.36,11.4-12.02,24.89-21.95,49.77-43.91,74.66-65.86.82-1.01.74-2.57.65-4.12-.02-20.25.27-40.5.56-60.75.09-6.67.27-13.67,3.52-19.48,3.25-5.81,10.65-9.83,16.61-6.97,6.25,3,7.61,11.23,8.04,18.21,2.76,44.9.44,89.95-.65,135.24-3.67,30.37-43.41,47.03-50.1,73.46-13.19,21.34-2.99,45.01-8.42,66.46"/>
    <path class="cls-3" d="M439.39,343.69c3.54-2.69,7.61-4.9,12.01-5.36,4.41-.46,9.19,1.07,11.84,4.67,2.93,3.98,2.69,9.64.68,14.16-2.01,4.52-5.51,8.16-8.95,11.69-8.29,8.53-16.58,17.07-24.87,25.6-.19.19-.37.39-.56.58"/>
  </g>
</svg>