<?xml version="1.0" encoding="UTF-8"?>
<svg id="Layer_1" data-name="Layer 1" xmlns="http://www.w3.org/2000/svg" viewBox="0 0 612 612">
  <defs>
    <style>
      .cls-1 {
        stroke: #101040;
        stroke-linecap: round;
        stroke-linejoin: round;
        stroke-width: 18px;
      }

      .cls-1, .cls-2 {
        fill: #fff;
      }

      .cls-2 {
        stroke-width: 0px;
      }
    </style>
  </defs>
  <rect class="cls-2" width="612" height="612"/>
  <g>
    <path class="cls-1" d="M121.59,300.55c-3.43-22.76,11.43-39.7,29.6-39.7"/>
    <path class="cls-1" d="M144.61,260.84c0-18.06,14.72-32.71,32.89-32.71"/>
    <path class="cls-1" d="M124.67,358.28c-16.71-6.71-21.05-11.33-21.05-29.4"/>
    <path class="cls-1" d="M203.63,362.2c-5.28,2.27-15.2,6.24-29.5-4.89"/>
    <path class="cls-1" d="M198.07,319.65c-14.8-10.19-14.39-39.74,6.84-47.42"/>
    <path class="cls-1" d="M175.08,357.97c-14.62-10.72-17.73-31.2-6.95-45.74"/>
    <path class="cls-1" d="M159.3,391.9c15.86,8.79,21.56,28.72,12.72,44.5"/>
    <path class="cls-1" d="M174.91,399.81c15.96-8.63,35.92-2.76,44.6,13.12"/>
    <path class="cls-1" d="M103.83,329.53c0-29.74,24.84-38.77,41.44-26.17"/>
    <path class="cls-1" d="M144.61,395.6c-31.01,18.52-48.67-6.83-48.67-24.89"/>
    <path class="cls-1" d="M95.94,370.71c0-18.06,9.47-21.22,16.44-25.47"/>
    <path class="cls-1" d="M128.83,459.36c-18.16,0-32.89-14.64-32.89-32.71"/>
    <path class="cls-1" d="M95.94,429.27c.55-17.27,7.42-20.61,16.44-30.24"/>
    <path class="cls-1" d="M161.71,492.07c-18.16,0-32.89-14.64-32.89-32.71"/>
    <path class="cls-1" d="M194.6,459.36c0,18.06-14.72,32.71-32.89,32.71"/>
    <path class="cls-1" d="M210.38,506.78c-18.16,0-22.55-2.92-32.23-19.08"/>
    <path class="cls-1" d="M243.27,474.07c0,18.06-14.72,32.71-32.89,32.71"/>
    <path class="cls-1" d="M216.61,443.01c13.75,2.33,26.66,12.99,26.66,31.06"/>
    <path class="cls-1" d="M210.38,209.78c18.16,0,32.89,14.64,32.89,32.71"/>
    <path class="cls-1" d="M177.5,242.49c0-18.06,14.72-32.71,32.89-32.71"/>
    <path class="cls-1" d="M128.83,459.36c0-17.54,12.49-23.32,19.07-24.2"/>
    <line class="cls-1" x1="243.27" y1="237.29" x2="243.27" y2="474.07"/>
    <path class="cls-1" d="M364.41,300.55c3.42-22.76-11.38-39.7-29.47-39.7"/>
    <path class="cls-1" d="M341.49,260.84c0-18.06-14.66-32.71-32.74-32.71"/>
    <path class="cls-1" d="M361.34,358.28c16.64-6.71,20.95-11.33,20.95-29.4"/>
    <path class="cls-1" d="M282.74,362.2c5.25,2.27,15.13,6.24,29.37-4.89"/>
    <path class="cls-1" d="M288.27,319.65c14.74-10.19,14.33-39.74-6.81-47.42"/>
    <path class="cls-1" d="M311.15,357.97c14.55-10.72,17.65-31.2,6.92-45.74"/>
    <path class="cls-1" d="M326.87,391.9c-15.79,8.79-21.46,28.72-12.66,44.5"/>
    <path class="cls-1" d="M311.33,399.81c-15.89-8.63-35.76-2.76-44.4,13.12"/>
    <path class="cls-1" d="M382.08,329.53c0-29.74-24.73-38.77-41.25-26.17"/>
    <path class="cls-1" d="M341.49,395.6c30.87,18.52,48.45-6.83,48.45-24.89"/>
    <path class="cls-1" d="M389.94,370.71c0-18.06-9.43-21.22-16.37-25.47"/>
    <path class="cls-1" d="M357.2,459.36c18.08,0,32.74-14.64,32.74-32.71"/>
    <path class="cls-1" d="M389.94,429.27c-.55-17.27-7.38-20.61-16.37-30.24"/>
    <path class="cls-1" d="M324.46,492.07c18.08,0,32.74-14.64,32.74-32.71"/>
    <path class="cls-1" d="M291.72,459.36c0,18.06,14.66,32.71,32.74,32.71"/>
    <path class="cls-1" d="M276.01,506.78c18.08,0,22.45-2.92,32.08-19.08"/>
    <path class="cls-1" d="M243.27,474.07c0,18.06,14.66,32.71,32.74,32.71"/>
    <path class="cls-1" d="M269.81,443.01c-13.69,2.33-26.54,12.99-26.54,31.06"/>
    <path class="cls-1" d="M276.01,209.78c-18.08,0-32.74,14.64-32.74,32.71"/>
    <path class="cls-1" d="M308.75,242.49c0-18.06-14.66-32.71-32.74-32.71"/>
    <path class="cls-1" d="M357.2,459.36c0-17.54-12.43-23.32-18.99-24.2"/>
    <line class="cls-1" x1="243.27" y1="237.29" x2="243.27" y2="474.07"/>
  </g>
  <g>
    <path class="cls-1" d="M390.39,113.5c-16.78-16.78-53.55-7.23-82.13,21.35"/>
    <path class="cls-1" d="M512.78,264.11c10.92,13.9-6.34,45.68-38.55,70.98"/>
    <line class="cls-1" x1="308.26" y1="134.85" x2="474.23" y2="335.09"/>
    <line class="cls-1" x1="387.64" y1="111.12" x2="512.78" y2="264.11"/>
  </g>
</svg>