<?xml version="1.0" encoding="UTF-8"?>
<svg id="Layer_1" data-name="Layer 1" xmlns="http://www.w3.org/2000/svg" viewBox="0 0 613 613">
  <defs>
    <style>
      .cls-1, .cls-2 {
        stroke-linecap: round;
        stroke-linejoin: round;
      }

      .cls-1, .cls-2, .cls-3, .cls-4 {
        stroke: #0f0f3a;
      }

      .cls-1, .cls-3 {
        fill: #fff;
      }

      .cls-1, .cls-4 {
        stroke-width: 25px;
      }

      .cls-2 {
        stroke-width: 10px;
      }

      .cls-2, .cls-4 {
        fill: none;
      }

      .cls-3, .cls-4 {
        stroke-miterlimit: 10;
      }
    </style>
  </defs>
  <rect class="cls-3" x=".5" y=".5" width="612" height="612"/>
  <ellipse class="cls-4" cx="306.5" cy="158.09" rx="36.36" ry="35.77"/>
  <line class="cls-1" x1="171.74" y1="217.6" x2="303.48" y2="239.76"/>
  <line class="cls-1" x1="311.84" y1="239.76" x2="441.03" y2="217.6"/>
  <line class="cls-1" x1="306.5" y1="323.04" x2="306.5" y2="198.42"/>
  <line class="cls-1" x1="248.69" y1="454.91" x2="306.39" y2="325.85"/>
  <line class="cls-1" x1="360.92" y1="454.91" x2="306.39" y2="325.85"/>
  <path class="cls-2" d="M180.15,193.77c2.34-3.27,4.68-6.53,7.02-9.8,2.84,3.44,5.3,7.19,7.33,11.17,2.23-5.12,5.34-9.85,9.14-13.94,2.19,5.62,4.39,11.24,6.58,16.85,2.57-3.67,5.15-7.34,7.72-11.01,1.7,5.68,3.4,11.36,5.1,17.04"/>
  <path class="cls-2" d="M201.59,261.86c2.34-3.27,4.68-6.53,7.02-9.8,2.84,3.44,5.3,7.19,7.33,11.17,2.23-5.12,5.34-9.85,9.14-13.94,2.19,5.62,4.39,11.24,6.58,16.85,2.57-3.67,5.15-7.34,7.72-11.01,1.7,5.68,3.4,11.36,5.1,17.04"/>
  <path class="cls-2" d="M229.02,419.12l-6.88-9.89c4.19-1.52,8.55-2.58,12.97-3.17-4.08-3.82-7.5-8.33-10.08-13.28,6.03-.19,12.06-.38,18.08-.56-2.6-3.65-5.2-7.31-7.8-10.96,5.92.3,11.84.6,17.76.9"/>
  <path class="cls-2" d="M356.18,377.7c4.01.14,8.03.28,12.04.42-1.3,4.27-3.06,8.39-5.25,12.28,5.5-.97,11.16-1.01,16.67-.1-3.47,4.94-6.93,9.87-10.4,14.81,4.48.11,8.96.22,13.44.33-3.79,4.56-7.58,9.12-11.37,13.67"/>
  <path class="cls-2" d="M419.25,244.13c-.62,3.97-1.25,7.94-1.87,11.91-4.08-1.8-7.96-4.05-11.56-6.69.3,5.58-.34,11.2-1.91,16.56-4.48-4.03-8.97-8.07-13.45-12.1-.65,4.44-1.3,8.87-1.95,13.31-4.07-4.31-8.14-8.62-12.2-12.93"/>
  <path class="cls-2" d="M437.06,175.44c-.62,3.97-1.25,7.94-1.87,11.91-4.08-1.8-7.96-4.05-11.56-6.69.3,5.58-.34,11.2-1.91,16.56-4.48-4.03-8.97-8.07-13.45-12.1-.65,4.44-1.3,8.87-1.95,13.31-4.07-4.31-8.14-8.62-12.2-12.93"/>
</svg>