<?xml version="1.0" encoding="UTF-8"?>
<svg id="Layer_1" data-name="Layer 1" xmlns="http://www.w3.org/2000/svg" viewBox="0 0 613 613">
  <defs>
    <style>
      .cls-1 {
        stroke-width: 18px;
      }

      .cls-1, .cls-2 {
        fill: #fff;
      }

      .cls-1, .cls-2, .cls-3, .cls-4 {
        stroke: #0f0f3a;
        stroke-linecap: round;
        stroke-miterlimit: 10;
      }

      .cls-3 {
        fill: #0f0f3a;
      }

      .cls-3, .cls-4 {
        stroke-width: 12px;
      }

      .cls-4 {
        fill: none;
      }
    </style>
  </defs>
  <rect class="cls-2" x=".5" y=".5" width="612" height="612"/>
  <path class="cls-1" d="m412.18,208.54c56.74,63.36,53.72,158.63-6.76,212.79"/>
  <path class="cls-1" d="m358.27,166.62c41.47,22.63,94.56,54.59,94.56,144.86"/>
  <path class="cls-1" d="m158.37,281.34c9.81-69.12,68.24-110.37,135.29-122.58"/>
  <line class="cls-1" x1="160.78" y1="276.54" x2="125.39" y2="346.93"/>
  <path class="cls-1" d="m148.77,372.82c-10.85,2.07-21.32-5.06-23.39-15.91"/>
  <path class="cls-1" d="m137.06,370.17c-10.04-4.6-14.45-16.47-9.85-26.51"/>
  <line class="cls-1" x1="137.06" y1="370.17" x2="160.78" y2="372.9"/>
  <line class="cls-1" x1="160.78" y1="372.9" x2="155.11" y2="465.7"/>
  <path class="cls-1" d="m181.22,481.55c-14.42,0-26.12-7.36-26.12-16.43"/>
  <line class="cls-1" x1="251.33" y1="465.12" x2="250.33" y2="527.37"/>
  <line class="cls-1" x1="405.42" y1="421.33" x2="405.42" y2="527.37"/>
  <path class="cls-1" d="m177.88,481.55c29.09,2.42,43.53-10.53,73.84-14.63"/>
  <path class="cls-1" d="m299.36,158.75c24.44-3.78,59.91,9.25,59.91,9.25"/>
  <ellipse class="cls-4" cx="315.49" cy="158.75" rx="33" ry="208" transform="translate(82.65 424.31) rotate(-75.47)"/>
  <ellipse class="cls-4" cx="299.36" cy="161.38" rx="208" ry="33" transform="translate(-27.46 67.32) rotate(-12.27)"/>
  <circle class="cls-3" cx="164.03" cy="102.01" r="16.38"/>
  <circle class="cls-3" cx="472.03" cy="222.68" r="16.38"/>
</svg>